<?xml version="1.0" encoding="UTF-8" standalone="no"?>
<!DOCTYPE svg PUBLIC "-//W3C//DTD SVG 1.1//EN" "http://www.w3.org/Graphics/SVG/1.1/DTD/svg11.dtd">
<svg width="100%" height="100%" viewBox="0 0 806 355" version="1.1" xmlns="http://www.w3.org/2000/svg" xmlns:xlink="http://www.w3.org/1999/xlink" xml:space="preserve" xmlns:serif="http://www.serif.com/" style="fill-rule:evenodd;clip-rule:evenodd;stroke-linejoin:round;stroke-miterlimit:2;">
    <g transform="matrix(1,0,0,1,-3879.92,-683.813)">
        <g transform="matrix(4.16667,0,0,4.16667,1174,1457)">
            <g transform="matrix(1,0,0,1,507.155,-490.49)">
                <g transform="matrix(-192.819,-9.45484,-9.45484,192.819,335.966,353.489)">
                    <path d="M0.736,-0.107C0.729,-0.071 0.729,-0.05 0.744,-0.033C0.754,-0.022 0.771,-0.014 0.786,-0.017C0.801,-0.021 0.814,-0.037 0.809,-0.053C0.805,-0.036 0.782,-0.03 0.768,-0.038C0.753,-0.046 0.746,-0.064 0.745,-0.081C0.745,-0.087 0.746,-0.092 0.747,-0.098C0.752,-0.123 0.773,-0.143 0.798,-0.151C0.808,-0.154 0.819,-0.157 0.829,-0.157C0.896,-0.157 0.95,-0.103 0.95,-0.036C0.95,-0.027 0.949,-0.018 0.947,-0.009C0.979,0.012 1,0.049 1,0.09C1,0.157 0.945,0.211 0.878,0.211C0.836,0.211 0.799,0.189 0.777,0.157C0.761,0.124 0.765,0.046 0.824,0.045C0.832,0.044 0.841,0.047 0.847,0.053C0.853,0.059 0.856,0.068 0.853,0.076C0.85,0.084 0.84,0.089 0.832,0.087C0.839,0.095 0.853,0.095 0.861,0.089C0.87,0.082 0.873,0.071 0.873,0.061C0.873,0.052 0.871,0.043 0.867,0.036C0.856,0.018 0.833,0.008 0.812,0.012C0.791,0.015 0.772,0.03 0.762,0.049C0.757,0.058 0.754,0.069 0.752,0.08L0.746,0.135C0.736,0.184 0.694,0.221 0.643,0.221C0.595,0.221 0.554,0.187 0.542,0.14C0.528,0.175 0.494,0.201 0.453,0.201C0.4,0.201 0.358,0.158 0.358,0.106L0.358,0.106C0.358,0.091 0.364,0.077 0.376,0.069C0.383,0.063 0.391,0.059 0.401,0.058C0.418,0.056 0.435,0.062 0.443,0.077C0.451,0.092 0.444,0.119 0.428,0.125C0.445,0.125 0.464,0.122 0.472,0.107C0.474,0.103 0.475,0.098 0.475,0.093C0.476,0.075 0.466,0.05 0.451,0.041C0.435,0.032 0.41,0.029 0.392,0.035C0.384,0.037 0.374,0.042 0.366,0.053C0.361,0.06 0.354,0.064 0.346,0.067C0.344,0.068 0.342,0.069 0.34,0.07C0.296,0.093 0.262,0.112 0.231,0.117C0.2,0.122 0.143,0.124 0.11,0.08C0.076,0.036 0.072,0.034 0.054,0.029C0.036,0.024 0,0.038 0,0.038C0,0.038 0.029,0.002 0.066,0.008C0.094,0.013 0.127,0.055 0.165,0.061C0.207,0.067 0.227,0.049 0.247,0.014C0.274,-0.035 0.262,-0.075 0.317,-0.106C0.371,-0.137 0.405,-0.134 0.472,-0.114C0.477,-0.112 0.482,-0.11 0.487,-0.108C0.481,-0.076 0.485,-0.041 0.499,-0.011C0.517,0.026 0.556,0.054 0.597,0.052C0.638,0.049 0.677,0.013 0.675,-0.028C0.675,-0.036 0.673,-0.045 0.669,-0.052C0.66,-0.069 0.639,-0.078 0.62,-0.076C0.638,-0.063 0.645,-0.039 0.635,-0.014C0.631,-0.004 0.623,0.001 0.612,0.004C0.596,0.009 0.577,0.008 0.562,0.001C0.523,-0.019 0.508,-0.057 0.508,-0.096C0.508,-0.135 0.519,-0.159 0.529,-0.179C0.549,-0.209 0.58,-0.221 0.619,-0.221C0.621,-0.221 0.622,-0.221 0.624,-0.221C0.683,-0.218 0.748,-0.165 0.736,-0.107Z" style="fill:url(#_Linear1);fill-rule:nonzero;"/>
                </g>
            </g>
        </g>
    </g>
    <defs>
        <linearGradient id="_Linear1" x1="0" y1="0" x2="1" y2="0" gradientUnits="userSpaceOnUse" gradientTransform="matrix(1,0,0,-1,0,5.18718e-06)"><stop offset="0" style="stop-color:rgb(249,226,118);stop-opacity:1"/><stop offset="1" style="stop-color:rgb(246,184,31);stop-opacity:1"/></linearGradient>
    </defs>
</svg>
