<?xml version="1.0" encoding="UTF-8" standalone="no"?>
<!DOCTYPE svg PUBLIC "-//W3C//DTD SVG 1.1//EN" "http://www.w3.org/Graphics/SVG/1.1/DTD/svg11.dtd">
<svg width="100%" height="100%" viewBox="0 0 510 958" version="1.1" xmlns="http://www.w3.org/2000/svg" xmlns:xlink="http://www.w3.org/1999/xlink" xml:space="preserve" xmlns:serif="http://www.serif.com/" style="fill-rule:evenodd;clip-rule:evenodd;stroke-linejoin:round;stroke-miterlimit:2;">
    <g transform="matrix(1,0,0,1,-2677.96,-290.985)">
        <g transform="matrix(4.16667,0,0,4.16667,1174,1457)">
            <g transform="matrix(1,0,0,1,32.5603,-254.924)">
                <g transform="matrix(1.88356,406.621,406.621,-1.88356,367.995,-93.0463)">
                    <rect x="0.168" y="0.047" width="0.561" height="0.004" style="fill:url(#_Linear1);"/>
                </g>
                <g transform="matrix(103.984,223.916,223.916,-103.984,319.91,43.9498)">
                    <path d="M0.61,0L0.699,-0.041L0.718,0L0.629,0.041L0.596,0.031L0.61,0Z" style="fill:url(#_Linear2);fill-rule:nonzero;"/>
                </g>
                <g transform="matrix(1.72321,246.876,246.876,-1.72321,386.216,29.2638)">
                    <rect x="0.62" y="-0.004" width="0.074" height="0.007" style="fill:url(#_Linear3);"/>
                </g>
                <g transform="matrix(1.72321,246.876,246.876,-1.72321,389.778,27.757)">
                    <rect x="0.626" y="-0.004" width="0.074" height="0.007" style="fill:url(#_Linear4);"/>
                </g>
                <g transform="matrix(103.984,223.916,223.916,-103.984,327.57,40.3926)">
                    <path d="M0.57,0.009C0.565,-0.002 0.57,-0.014 0.58,-0.019C0.591,-0.024 0.603,-0.019 0.608,-0.009C0.612,0.002 0.608,0.014 0.597,0.019C0.587,0.024 0.575,0.019 0.57,0.009C0.57,0.009 0.57,0.009 0.57,0.009Z" style="fill:url(#_Linear5);fill-rule:nonzero;"/>
                </g>
                <g transform="matrix(116.719,-0.123221,-0.123221,-116.719,330.136,112.224)">
                    <path d="M0.212,0.191C0.053,0.11 0.019,-0.003 0.007,-0.043C-0.015,-0.116 0.014,-0.204 0.111,-0.248C0.205,-0.291 0.45,-0.29 0.5,-0.289C0.55,-0.29 0.795,-0.291 0.889,-0.248C0.986,-0.204 1.015,-0.116 0.993,-0.043C0.981,-0.004 0.964,0.118 0.805,0.199C0.647,0.28 0.498,0.294 0.498,0.294C0.498,0.294 0.371,0.272 0.212,0.191Z" style="fill:url(#_Linear6);fill-rule:nonzero;"/>
                </g>
                <g transform="matrix(1,0,0,1,436.64,108.215)">
                    <path d="M0,8.538C1.647,16.191 0.114,24.968 -6.399,30.49C-10.952,34.35 -23.46,37.455 -42.344,37.587C-29.674,37.498 -21.289,34.423 -18.242,30.572C-13.886,25.065 -12.877,16.292 -14,8.636C-18.237,-20.252 -43.241,-28.853 -43.241,-28.853C-38.377,-29.049 -6.217,-20.336 0,8.538" style="fill:rgb(255,0,21);fill-rule:nonzero;"/>
                </g>
                <g transform="matrix(1,0,0,1,342.431,107.879)">
                    <path d="M0,9.529C-1.541,17.205 0.114,25.96 6.703,31.39C11.31,35.187 23.859,38.117 42.743,37.986C30.073,38.074 21.646,35.115 18.547,31.308C14.113,25.862 12.982,17.104 13.999,9.432C17.834,-19.512 42.715,-28.459 42.715,-28.459C37.849,-28.588 5.813,-19.428 0,9.529" style="fill:rgb(255,0,21);fill-rule:nonzero;"/>
                </g>
                <g transform="matrix(1,0,0,1,389.869,79.3891)">
                    <path d="M0,66.443L-0.295,0C-0.297,-0.049 -13.576,8.182 -15.502,37.113C-16.012,44.781 -15.388,53.543 -13.033,59.004C-11.387,62.821 -6.943,66.492 -0.267,66.445L0,66.443Z" style="fill:rgb(255,0,21);fill-rule:nonzero;"/>
                </g>
                <g transform="matrix(1,0,0,1,374.622,86.8853)">
                    <path d="M0,51.522C-2.354,46.062 -2.979,37.3 -2.469,29.632C-0.543,0.702 12.736,-7.53 12.738,-7.481C12.738,-7.481 -12.143,1.467 -15.978,30.411C-16.994,38.083 -15.863,46.84 -11.43,52.287C-8.33,56.094 0.097,59.052 12.767,58.964C6.09,59.01 1.646,55.339 0,51.522" style="fill:rgb(255,0,21);fill-rule:nonzero;"/>
                </g>
                <g transform="matrix(1,0,0,1,329.075,107.851)">
                    <path d="M0,9.651C-1.959,17.329 0.114,26.081 8.42,31.5C14.226,35.288 30.057,38.195 53.886,38.029C35.002,38.161 22.452,35.231 17.846,31.434C11.257,26.004 9.602,17.249 11.143,9.573C16.956,-19.384 48.991,-28.544 53.857,-28.415C47.717,-28.536 7.39,-19.318 0,9.651" style="fill:rgb(255,0,21);fill-rule:nonzero;"/>
                </g>
                <g transform="matrix(-0.0538085,0.0007763,0.0007763,0.0538085,387.434,79.4031)">
                    <path d="M0.516,0.029C1,0.022 1.371,-0.002 1.371,-0.002C0.981,0.022 0.851,0.024 0.516,0.029Z" style="fill:url(#_Linear7);fill-rule:nonzero;"/>
                </g>
                <g transform="matrix(0.329879,-0.0022968,-0.0022968,-0.329879,385.202,79.4341)">
                    <path d="M0,0.039C0.518,0.024 1.964,-0.014 0,0.039Z" style="fill:url(#_Linear8);fill-rule:nonzero;"/>
                </g>
                <g transform="matrix(0.0554581,-0.0003861,-0.0003861,-0.0554581,385.147,79.4207)">
                    <path d="M0.997,-0.014C0.6,-0.011 0.42,0.008 -0.013,0.011C-0.013,0.011 0.42,-0.01 0.997,-0.014Z" style="fill:url(#_Linear9);fill-rule:nonzero;"/>
                </g>
                <g transform="matrix(-0.296603,0.004279,0.004279,0.296603,387.809,79.404)">
                    <path d="M0.672,0.014C0.874,0.004 1.177,-0.01 1.359,-0.016C1.046,-0.001 0.82,0.009 0.672,0.014ZM0.52,0.02C0.551,0.019 0.605,0.018 0.672,0.014C0.608,0.018 0.554,0.019 0.52,0.02Z" style="fill:url(#_Linear10);fill-rule:nonzero;"/>
                </g>
                <g transform="matrix(-0.0174642,0.0002519,0.0002519,0.0174642,387.678,79.4124)">
                    <path d="M1.347,-0.04C0.432,0.03 0.031,0.036 1.347,-0.04Z" style="fill:url(#_Linear11);fill-rule:nonzero;"/>
                </g>
                <g transform="matrix(1,0,0,1,389.842,79.3451)">
                    <path d="M0,66.487L-0.871,0.049C-0.869,0 12.523,8.045 14.852,36.946C15.469,44.606 14.966,53.376 12.688,58.868C11.095,62.709 6.703,66.441 0.026,66.487L0,66.487Z" style="fill:rgb(255,0,21);fill-rule:nonzero;"/>
                </g>
                <g transform="matrix(1,0,0,1,404.744,86.9473)">
                    <path d="M0,51.251C2.278,45.758 2.781,36.988 2.164,29.328C-0.164,0.427 -13.557,-7.618 -13.559,-7.569C-13.559,-7.569 11.445,1.031 15.683,29.918C16.806,37.575 15.797,46.349 11.44,51.855C8.394,55.706 0.009,58.781 -12.661,58.869C-5.984,58.823 -1.593,55.091 0,51.251" style="fill:rgb(255,0,21);fill-rule:nonzero;"/>
                </g>
                <g transform="matrix(1,0,0,1,449.996,108.267)">
                    <path d="M0,8.393C2.065,16.043 0.114,24.823 -8.114,30.357C-13.867,34.226 -29.656,37.353 -53.485,37.519C-34.602,37.387 -22.094,34.283 -17.541,30.422C-11.027,24.9 -9.494,16.123 -11.142,8.47C-17.358,-20.404 -49.519,-29.117 -54.383,-28.92C-48.244,-29.126 -7.792,-20.47 0,8.393" style="fill:rgb(255,0,21);fill-rule:nonzero;"/>
                </g>
                <g transform="matrix(0.0538142,2.69e-05,-2.69e-05,0.0538142,391.109,79.3752)">
                    <path d="M1.295,0.051C1.332,0.051 1.369,0.051 1.406,0.051C1.406,0.051 1.369,0.051 1.295,0.051ZM0.57,0.089C0.886,0.07 1.146,0.07 1.295,0.051C1.016,0.07 0.867,0.07 0.57,0.089Z" style="fill:url(#_Linear12);fill-rule:nonzero;"/>
                </g>
                <g transform="matrix(-0.329879,0.0022968,-0.0022968,-0.329879,393.344,79.3777)">
                    <path d="M0.001,0.038C0.519,0.027 1.965,-0.012 0.001,0.038Z" style="fill:url(#_Linear13);fill-rule:nonzero;"/>
                </g>
                <g transform="matrix(-0.0554581,0.0003861,-0.0003861,-0.0554581,393.399,79.3642)">
                    <path d="M0.156,0.022C0.12,0.022 0.066,0.022 0.012,0.021C0.012,0.021 0.066,0.022 0.156,0.022ZM1.004,-0.008C0.643,0.008 0.337,0.024 0.156,0.022C0.481,0.007 0.661,0.008 1.004,-0.008Z" style="fill:url(#_Linear14);fill-rule:nonzero;"/>
                </g>
                <g transform="matrix(0.296634,0.0001485,-0.0001485,0.296634,390.734,79.3812)">
                    <path d="M0.533,0.029C0.631,0.026 0.907,0.012 1.369,-0.005C1.13,0.006 0.675,0.023 0.533,0.029Z" style="fill:url(#_Linear15);fill-rule:nonzero;"/>
                </g>
                <g transform="matrix(0.017466,8.7e-06,-8.7e-06,0.017466,390.865,79.3871)">
                    <path d="M1.561,0.171C0.245,0.228 0.645,0.228 1.561,0.171Z" style="fill:url(#_Linear16);fill-rule:nonzero;"/>
                </g>
                <g transform="matrix(110.189,162.345,162.345,-110.189,370.431,52.0818)">
                    <path d="M0.167,0.044L0.122,-0.022C0.116,-0.031 0.118,-0.044 0.127,-0.05C0.137,-0.056 0.149,-0.054 0.155,-0.044L0.2,0.022C0.206,0.031 0.203,0.044 0.194,0.05C0.185,0.056 0.173,0.054 0.167,0.045C0.167,0.045 0.167,0.045 0.167,0.044Z" style="fill:url(#_Linear17);fill-rule:nonzero;"/>
                </g>
                <g transform="matrix(110.189,162.345,162.345,-110.189,338.419,73.8094)">
                    <path d="M0.468,0.044L0.423,-0.022C0.417,-0.031 0.42,-0.044 0.429,-0.05C0.438,-0.056 0.45,-0.054 0.457,-0.044L0.501,0.022C0.507,0.031 0.505,0.044 0.496,0.05C0.487,0.056 0.474,0.054 0.468,0.045C0.468,0.045 0.468,0.045 0.468,0.044Z" style="fill:url(#_Linear18);fill-rule:nonzero;"/>
                </g>
            </g>
        </g>
    </g>
</svg>
