<?xml version="1.0" encoding="UTF-8" standalone="no"?>
<!DOCTYPE svg PUBLIC "-//W3C//DTD SVG 1.1//EN" "http://www.w3.org/Graphics/SVG/1.1/DTD/svg11.dtd">
<svg width="100%" height="100%" viewBox="0 0 3558 325" version="1.1" xmlns="http://www.w3.org/2000/svg" xmlns:xlink="http://www.w3.org/1999/xlink" xml:space="preserve" xmlns:serif="http://www.serif.com/" style="fill-rule:evenodd;clip-rule:evenodd;stroke-linecap:round;stroke-linejoin:round;stroke-miterlimit:10;">
    <g transform="matrix(1,0,0,1,-887.967,-4012.43)">
        <g transform="matrix(4.16667,0,0,4.16667,1174,1457)">
            <g transform="matrix(0.00435211,-0.999991,-0.999991,-0.00435211,748.202,616.69)">
                <path d="M-37.224,-37.06C-57.782,-37.06 -74.446,-20.395 -74.447,0.163C-74.448,20.721 -57.781,37.386 -37.224,37.386C-16.666,37.386 0,20.721 -0.001,0.164C0,-20.394 -16.665,-37.06 -37.224,-37.06" style="fill:rgb(211,0,21);fill-rule:nonzero;"/>
            </g>
            <g transform="matrix(0.0043506,-0.999991,-0.999991,-0.0043506,748.024,636.905)">
                <ellipse cx="-17.009" cy="0.074" rx="17.01" ry="17.01" style="fill:none;stroke:url(#_Linear1);stroke-width:2.8px;"/>
            </g>
            <g transform="matrix(0.00434342,-0.999991,-0.999991,-0.00434342,748.088,629.51)">
                <ellipse cx="-24.404" cy="0.106" rx="24.405" ry="24.405" style="fill:none;stroke:url(#_Linear2);stroke-width:2.8px;"/>
            </g>
            <g transform="matrix(0.00434634,-0.999991,-0.999991,-0.00434634,748.152,622.278)">
                <ellipse cx="-31.636" cy="0.138" rx="31.636" ry="31.636" style="fill:none;stroke:url(#_Linear3);stroke-width:2.8px;"/>
            </g>
            <g transform="matrix(0.00433873,-0.999991,-0.999991,-0.00433873,693.969,616.456)">
                <path d="M-37.223,-37.06C-57.781,-37.061 -74.445,-20.396 -74.446,0.162C-74.446,20.721 -57.78,37.385 -37.223,37.385C-16.664,37.386 0.001,20.72 0.001,0.163C0.001,-20.396 -16.664,-37.061 -37.223,-37.06" style="fill:rgb(211,0,21);fill-rule:nonzero;"/>
            </g>
            <g transform="matrix(0.0043212,-0.999991,-0.999991,-0.0043212,693.791,636.67)">
                <ellipse cx="-17.009" cy="0.073" rx="17.01" ry="17.01" style="fill:none;stroke:url(#_Linear4);stroke-width:2.8px;"/>
            </g>
            <g transform="matrix(0.00434342,-0.999991,-0.999991,-0.00434342,693.856,629.275)">
                <ellipse cx="-24.404" cy="0.106" rx="24.405" ry="24.405" style="fill:none;stroke:url(#_Linear5);stroke-width:2.8px;"/>
            </g>
            <g transform="matrix(0.00433054,-0.999991,-0.999991,-0.00433054,693.919,622.042)">
                <ellipse cx="-31.636" cy="0.137" rx="31.636" ry="31.636" style="fill:none;stroke:url(#_Linear6);stroke-width:2.8px;"/>
            </g>
            <g transform="matrix(0.00433873,-0.999991,-0.999991,-0.00433873,639.736,616.22)">
                <path d="M-37.223,-37.061C-57.782,-37.061 -74.446,-20.396 -74.446,0.162C-74.447,20.72 -57.781,37.385 -37.223,37.384C-16.664,37.385 0,20.72 0,0.163C0,-20.397 -16.665,-37.061 -37.223,-37.061" style="fill:rgb(211,0,21);fill-rule:nonzero;"/>
            </g>
            <g transform="matrix(0.0043212,-0.999991,-0.999991,-0.0043212,639.56,636.433)">
                <circle cx="-17.009" cy="0.074" r="17.01" style="fill:none;stroke:url(#_Linear7);stroke-width:2.8px;"/>
            </g>
            <g transform="matrix(0.00434342,-0.999991,-0.999991,-0.00434342,639.626,629.038)">
                <ellipse cx="-24.404" cy="0.107" rx="24.405" ry="24.405" style="fill:none;stroke:url(#_Linear8);stroke-width:2.8px;"/>
            </g>
            <g transform="matrix(0.00434634,-0.999991,-0.999991,-0.00434634,639.688,621.807)">
                <ellipse cx="-31.635" cy="0.138" rx="31.636" ry="31.636" style="fill:none;stroke:url(#_Linear9);stroke-width:2.8px;"/>
            </g>
            <g transform="matrix(0.00435211,-0.999991,-0.999991,-0.00435211,585.506,615.984)">
                <path d="M-37.223,-37.061C-57.782,-37.06 -74.446,-20.396 -74.447,0.162C-74.447,20.72 -57.782,37.385 -37.223,37.386C-16.665,37.385 0,20.721 0,0.163C0,-20.395 -16.664,-37.06 -37.223,-37.061" style="fill:rgb(211,0,21);fill-rule:nonzero;"/>
            </g>
            <g transform="matrix(0.00435047,-0.999991,-0.999991,-0.00435047,585.329,636.198)">
                <ellipse cx="-17.009" cy="0.074" rx="17.01" ry="17.01" style="fill:none;stroke:url(#_Linear10);stroke-width:2.8px;"/>
            </g>
            <g transform="matrix(0.00436391,-0.99999,-0.99999,-0.00436391,585.395,628.803)">
                <ellipse cx="-24.404" cy="0.107" rx="24.405" ry="24.405" style="fill:none;stroke:url(#_Linear11);stroke-width:2.8px;"/>
            </g>
            <g transform="matrix(0.00434634,-0.999991,-0.999991,-0.00434634,585.456,621.571)">
                <ellipse cx="-31.636" cy="0.138" rx="31.636" ry="31.636" style="fill:none;stroke:url(#_Linear12);stroke-width:2.8px;"/>
            </g>
            <g transform="matrix(0.00435217,-0.999991,-0.999991,-0.00435217,525.047,615.722)">
                <path d="M-37.223,-37.059C-57.781,-37.06 -74.445,-20.395 -74.446,0.163C-74.447,20.72 -57.78,37.386 -37.223,37.386C-16.665,37.386 0.001,20.721 0,0.164C0.001,-20.394 -16.664,-37.06 -37.223,-37.059" style="fill:rgb(211,0,21);fill-rule:nonzero;"/>
            </g>
            <g transform="matrix(0.00435047,-0.999991,-0.999991,-0.00435047,524.869,635.934)">
                <ellipse cx="-17.01" cy="0.074" rx="17.01" ry="17.01" style="fill:none;stroke:url(#_Linear13);stroke-width:2.8px;"/>
            </g>
            <g transform="matrix(0.00436391,-0.99999,-0.99999,-0.00436391,524.935,628.54)">
                <ellipse cx="-24.404" cy="0.107" rx="24.405" ry="24.405" style="fill:none;stroke:url(#_Linear14);stroke-width:2.8px;"/>
            </g>
            <g transform="matrix(0.00434634,-0.999991,-0.999991,-0.00434634,524.997,621.309)">
                <ellipse cx="-31.636" cy="0.138" rx="31.636" ry="31.636" style="fill:none;stroke:url(#_Linear15);stroke-width:2.8px;"/>
            </g>
            <g transform="matrix(0.00435217,-0.999991,-0.999991,-0.00435217,469.777,615.482)">
                <path d="M-37.223,-37.06C-57.781,-37.06 -74.445,-20.396 -74.446,0.163C-74.446,20.721 -57.781,37.385 -37.223,37.386C-16.664,37.385 0.001,20.722 0.001,0.163C0.001,-20.395 -16.663,-37.06 -37.223,-37.06" style="fill:rgb(211,0,21);fill-rule:nonzero;"/>
            </g>
            <g transform="matrix(0.0043506,-0.999991,-0.999991,-0.0043506,469.6,635.695)">
                <circle cx="-17.009" cy="0.074" r="17.009" style="fill:none;stroke:url(#_Linear16);stroke-width:2.8px;"/>
            </g>
            <g transform="matrix(0.00436391,-0.99999,-0.99999,-0.00436391,469.665,628.3)">
                <ellipse cx="-24.404" cy="0.107" rx="24.405" ry="24.405" style="fill:none;stroke:url(#_Linear17);stroke-width:2.8px;"/>
            </g>
            <g transform="matrix(0.00434634,-0.999991,-0.999991,-0.00434634,469.727,621.068)">
                <ellipse cx="-31.636" cy="0.138" rx="31.636" ry="31.636" style="fill:none;stroke:url(#_Linear18);stroke-width:2.8px;"/>
            </g>
            <g transform="matrix(0.00435211,-0.999991,-0.999991,-0.00435211,411.586,615.228)">
                <path d="M-37.223,-37.061C-57.782,-37.06 -74.446,-20.396 -74.447,0.162C-74.447,20.72 -57.782,37.385 -37.223,37.386C-16.665,37.385 0,20.721 0,0.163C0,-20.395 -16.664,-37.06 -37.223,-37.061" style="fill:rgb(211,0,21);fill-rule:nonzero;"/>
            </g>
            <g transform="matrix(0.00435047,-0.999991,-0.999991,-0.00435047,411.409,635.441)">
                <ellipse cx="-17.01" cy="0.074" rx="17.009" ry="17.01" style="fill:none;stroke:url(#_Linear19);stroke-width:2.8px;"/>
            </g>
            <g transform="matrix(0.00436391,-0.99999,-0.99999,-0.00436391,411.474,628.047)">
                <ellipse cx="-24.404" cy="0.107" rx="24.405" ry="24.405" style="fill:none;stroke:url(#_Linear20);stroke-width:2.8px;"/>
            </g>
            <g transform="matrix(0.00434634,-0.999991,-0.999991,-0.00434634,411.536,620.815)">
                <ellipse cx="-31.636" cy="0.138" rx="31.636" ry="31.636" style="fill:none;stroke:url(#_Linear21);stroke-width:2.8px;"/>
            </g>
            <g transform="matrix(0.00433873,-0.999991,-0.999991,-0.00433873,357.353,614.993)">
                <path d="M-37.223,-37.06C-57.782,-37.061 -74.445,-20.396 -74.446,0.162C-74.446,20.721 -57.78,37.385 -37.223,37.385C-16.664,37.386 0.001,20.72 0,0.162C0.001,-20.396 -16.664,-37.061 -37.223,-37.06" style="fill:rgb(211,0,21);fill-rule:nonzero;"/>
            </g>
            <g transform="matrix(0.0043212,-0.999991,-0.999991,-0.0043212,357.176,635.207)">
                <ellipse cx="-17.009" cy="0.073" rx="17.01" ry="17.01" style="fill:none;stroke:url(#_Linear22);stroke-width:2.8px;"/>
            </g>
            <g transform="matrix(0.00434342,-0.999991,-0.999991,-0.00434342,357.241,627.812)">
                <ellipse cx="-24.404" cy="0.106" rx="24.405" ry="24.405" style="fill:none;stroke:url(#_Linear23);stroke-width:2.8px;"/>
            </g>
            <g transform="matrix(0.00433054,-0.999991,-0.999991,-0.00433054,357.304,620.58)">
                <ellipse cx="-31.636" cy="0.137" rx="31.636" ry="31.636" style="fill:none;stroke:url(#_Linear24);stroke-width:2.8px;"/>
            </g>
            <g transform="matrix(0.00433873,-0.999991,-0.999991,-0.00433873,303.121,614.757)">
                <path d="M-37.223,-37.061C-57.782,-37.061 -74.446,-20.396 -74.447,0.162C-74.447,20.72 -57.781,37.385 -37.223,37.384C-16.665,37.385 0,20.72 0,0.163C0,-20.397 -16.665,-37.061 -37.223,-37.061" style="fill:rgb(211,0,21);fill-rule:nonzero;"/>
            </g>
            <g transform="matrix(0.0043212,-0.999991,-0.999991,-0.0043212,302.945,634.97)">
                <ellipse cx="-17.009" cy="0.074" rx="17.01" ry="17.01" style="fill:none;stroke:url(#_Linear25);stroke-width:2.8px;"/>
            </g>
            <g transform="matrix(0.00434342,-0.999991,-0.999991,-0.00434342,303.011,627.575)">
                <ellipse cx="-24.404" cy="0.107" rx="24.405" ry="24.405" style="fill:none;stroke:url(#_Linear26);stroke-width:2.8px;"/>
            </g>
            <g transform="matrix(0.00433054,-0.999991,-0.999991,-0.00433054,303.072,620.345)">
                <ellipse cx="-31.635" cy="0.138" rx="31.636" ry="31.636" style="fill:none;stroke:url(#_Linear27);stroke-width:2.8px;"/>
            </g>
            <g transform="matrix(0.00435211,-0.999991,-0.999991,-0.00435211,248.89,614.521)">
                <path d="M-37.223,-37.061C-57.781,-37.061 -74.446,-20.396 -74.446,0.162C-74.447,20.719 -57.781,37.385 -37.223,37.385C-16.665,37.385 0,20.72 0,0.163C0.001,-20.395 -16.665,-37.061 -37.223,-37.061" style="fill:rgb(211,0,21);fill-rule:nonzero;"/>
            </g>
            <g transform="matrix(0.0043506,-0.999991,-0.999991,-0.0043506,248.714,634.735)">
                <ellipse cx="-17.009" cy="0.074" rx="17.009" ry="17.01" style="fill:none;stroke:url(#_Linear28);stroke-width:2.8px;"/>
            </g>
            <g transform="matrix(0.00436391,-0.99999,-0.99999,-0.00436391,248.779,627.339)">
                <ellipse cx="-24.405" cy="0.106" rx="24.405" ry="24.405" style="fill:none;stroke:url(#_Linear29);stroke-width:2.8px;"/>
            </g>
            <g transform="matrix(0.00434634,-0.999991,-0.999991,-0.00434634,248.842,620.109)">
                <ellipse cx="-31.635" cy="0.138" rx="31.636" ry="31.636" style="fill:none;stroke:url(#_Linear30);stroke-width:2.8px;"/>
            </g>
            <g transform="matrix(0.00433873,-0.999991,-0.999991,-0.00433873,190.822,614.269)">
                <path d="M-37.223,-37.061C-57.783,-37.062 -74.446,-20.397 -74.447,0.161C-74.447,20.72 -57.781,37.385 -37.223,37.384C-16.665,37.385 0,20.719 -0.001,0.161C0,-20.398 -16.665,-37.061 -37.223,-37.061" style="fill:rgb(211,0,21);fill-rule:nonzero;"/>
            </g>
            <g transform="matrix(0.0043212,-0.999991,-0.999991,-0.0043212,190.645,634.483)">
                <ellipse cx="-17.009" cy="0.073" rx="17.01" ry="17.01" style="fill:none;stroke:url(#_Linear31);stroke-width:2.8px;"/>
            </g>
            <g transform="matrix(0.00434342,-0.999991,-0.999991,-0.00434342,190.711,627.088)">
                <ellipse cx="-24.404" cy="0.106" rx="24.405" ry="24.405" style="fill:none;stroke:url(#_Linear32);stroke-width:2.8px;"/>
            </g>
            <g transform="matrix(0.00433054,-0.999991,-0.999991,-0.00433054,190.773,619.856)">
                <circle cx="-31.636" cy="0.137" r="31.636" style="fill:none;stroke:url(#_Linear33);stroke-width:2.8px;"/>
            </g>
            <g transform="matrix(0.00433867,-0.999991,-0.999991,-0.00433867,135.553,614.028)">
                <path d="M-37.223,-37.061C-57.783,-37.062 -74.446,-20.396 -74.447,0.162C-74.447,20.721 -57.781,37.385 -37.223,37.385C-16.665,37.385 0,20.72 -0.001,0.162C0,-20.397 -16.665,-37.061 -37.223,-37.061" style="fill:rgb(211,0,21);fill-rule:nonzero;"/>
            </g>
            <g transform="matrix(0.0043212,-0.999991,-0.999991,-0.0043212,135.375,634.243)">
                <ellipse cx="-17.009" cy="0.073" rx="17.01" ry="17.01" style="fill:none;stroke:url(#_Linear34);stroke-width:2.8px;"/>
            </g>
            <g transform="matrix(0.00434342,-0.999991,-0.999991,-0.00434342,135.441,626.848)">
                <ellipse cx="-24.404" cy="0.106" rx="24.405" ry="24.405" style="fill:none;stroke:url(#_Linear35);stroke-width:2.8px;"/>
            </g>
            <g transform="matrix(0.00434634,-0.999991,-0.999991,-0.00434634,135.505,619.616)">
                <ellipse cx="-31.635" cy="0.139" rx="31.636" ry="31.636" style="fill:none;stroke:url(#_Linear36);stroke-width:2.8px;"/>
            </g>
            <g transform="matrix(0.00433873,-0.999991,-0.999991,-0.00433873,77.3612,613.775)">
                <path d="M-37.223,-37.061C-57.783,-37.062 -74.446,-20.396 -74.447,0.162C-74.447,20.72 -57.781,37.385 -37.223,37.384C-16.665,37.385 0,20.72 -0.001,0.161C0,-20.397 -16.665,-37.061 -37.223,-37.061" style="fill:rgb(211,0,21);fill-rule:nonzero;"/>
            </g>
            <g transform="matrix(0.0043506,-0.999991,-0.999991,-0.0043506,77.1859,633.99)">
                <ellipse cx="-17.009" cy="0.074" rx="17.01" ry="17.009" style="fill:none;stroke:url(#_Linear37);stroke-width:2.8px;"/>
            </g>
            <g transform="matrix(0.00434342,-0.999991,-0.999991,-0.00434342,77.2499,626.595)">
                <ellipse cx="-24.404" cy="0.106" rx="24.405" ry="24.405" style="fill:none;stroke:url(#_Linear38);stroke-width:2.8px;"/>
            </g>
            <g transform="matrix(0.00434634,-0.999991,-0.999991,-0.00434634,77.3133,619.363)">
                <ellipse cx="-31.636" cy="0.138" rx="31.636" ry="31.636" style="fill:none;stroke:url(#_Linear39);stroke-width:2.8px;"/>
            </g>
            <g transform="matrix(0.00433873,-0.999991,-0.999991,-0.00433873,23.1293,613.54)">
                <path d="M-37.223,-37.061C-57.782,-37.062 -74.446,-20.397 -74.447,0.161C-74.447,20.72 -57.781,37.385 -37.223,37.384C-16.665,37.385 0,20.72 0,0.162C0,-20.397 -16.665,-37.061 -37.223,-37.061" style="fill:rgb(211,0,21);fill-rule:nonzero;"/>
            </g>
            <g transform="matrix(0.0043212,-0.999991,-0.999991,-0.0043212,22.9539,633.754)">
                <ellipse cx="-17.009" cy="0.074" rx="17.01" ry="17.01" style="fill:none;stroke:url(#_Linear40);stroke-width:2.8px;"/>
            </g>
            <g transform="matrix(0.00434342,-0.999991,-0.999991,-0.00434342,23.0189,626.359)">
                <ellipse cx="-24.404" cy="0.106" rx="24.405" ry="24.405" style="fill:none;stroke:url(#_Linear41);stroke-width:2.8px;"/>
            </g>
            <g transform="matrix(0.00433054,-0.999991,-0.999991,-0.00433054,23.0809,619.127)">
                <circle cx="-31.636" cy="0.137" r="31.636" style="fill:none;stroke:url(#_Linear42);stroke-width:2.8px;"/>
            </g>
            <g transform="matrix(0.00433873,-0.999991,-0.999991,-0.00433873,-31.1021,613.305)">
                <path d="M-37.223,-37.061C-57.782,-37.062 -74.446,-20.396 -74.446,0.162C-74.447,20.72 -57.781,37.385 -37.223,37.384C-16.664,37.385 0,20.72 0,0.162C0,-20.397 -16.665,-37.061 -37.223,-37.061" style="fill:rgb(211,0,21);fill-rule:nonzero;"/>
            </g>
            <g transform="matrix(0.00434634,-0.999991,-0.999991,-0.00434634,-31.15,618.892)">
                <ellipse cx="-31.636" cy="0.138" rx="31.636" ry="31.636" style="fill:none;stroke:url(#_Linear43);stroke-width:2.8px;"/>
            </g>
            <g transform="matrix(0.0043212,-0.999991,-0.999991,-0.0043212,-31.9024,633.754)">
                <ellipse cx="-17.009" cy="0.074" rx="17.01" ry="17.01" style="fill:none;stroke:url(#_Linear44);stroke-width:2.8px;"/>
            </g>
            <g transform="matrix(0.00434342,-0.999991,-0.999991,-0.00434342,-31.8374,626.359)">
                <ellipse cx="-24.404" cy="0.106" rx="24.405" ry="24.405" style="fill:none;stroke:url(#_Linear45);stroke-width:2.8px;"/>
            </g>
        </g>
    </g>
    <defs>
        <linearGradient id="_Linear1" x1="0" y1="0" x2="1" y2="0" gradientUnits="userSpaceOnUse" gradientTransform="matrix(0.000191206,-36.8138,-36.8138,-0.000191206,-17.0087,18.481)"><stop offset="0" style="stop-color:rgb(240,139,0);stop-opacity:1"/><stop offset="0.61" style="stop-color:rgb(240,139,0);stop-opacity:1"/><stop offset="0.71" style="stop-color:rgb(255,173,0);stop-opacity:1"/><stop offset="1" style="stop-color:rgb(254,223,175);stop-opacity:1"/></linearGradient>
        <linearGradient id="_Linear2" x1="0" y1="0" x2="1" y2="0" gradientUnits="userSpaceOnUse" gradientTransform="matrix(-0.000102591,-51.6046,-51.6046,0.000102591,-24.4039,25.908)"><stop offset="0" style="stop-color:rgb(240,139,0);stop-opacity:1"/><stop offset="0.61" style="stop-color:rgb(240,139,0);stop-opacity:1"/><stop offset="0.71" style="stop-color:rgb(255,173,0);stop-opacity:1"/><stop offset="1" style="stop-color:rgb(254,223,175);stop-opacity:1"/></linearGradient>
        <linearGradient id="_Linear3" x1="0" y1="0" x2="1" y2="0" gradientUnits="userSpaceOnUse" gradientTransform="matrix(6.15746e-05,-66.0667,-66.0667,-6.15746e-05,-31.6357,33.1715)"><stop offset="0" style="stop-color:rgb(240,139,0);stop-opacity:1"/><stop offset="0.61" style="stop-color:rgb(240,139,0);stop-opacity:1"/><stop offset="0.71" style="stop-color:rgb(255,173,0);stop-opacity:1"/><stop offset="1" style="stop-color:rgb(254,223,175);stop-opacity:1"/></linearGradient>
        <linearGradient id="_Linear4" x1="0" y1="0" x2="1" y2="0" gradientUnits="userSpaceOnUse" gradientTransform="matrix(-0.000891096,-36.814,-36.814,0.000891096,-17.0079,18.4795)"><stop offset="0" style="stop-color:rgb(240,139,0);stop-opacity:1"/><stop offset="0.61" style="stop-color:rgb(240,139,0);stop-opacity:1"/><stop offset="0.71" style="stop-color:rgb(255,173,0);stop-opacity:1"/><stop offset="1" style="stop-color:rgb(254,223,175);stop-opacity:1"/></linearGradient>
        <linearGradient id="_Linear5" x1="0" y1="0" x2="1" y2="0" gradientUnits="userSpaceOnUse" gradientTransform="matrix(-0.000102722,-51.6048,-51.6048,0.000102722,-24.4036,25.9075)"><stop offset="0" style="stop-color:rgb(240,139,0);stop-opacity:1"/><stop offset="0.61" style="stop-color:rgb(240,139,0);stop-opacity:1"/><stop offset="0.71" style="stop-color:rgb(255,173,0);stop-opacity:1"/><stop offset="1" style="stop-color:rgb(254,223,175);stop-opacity:1"/></linearGradient>
        <linearGradient id="_Linear6" x1="0" y1="0" x2="1" y2="0" gradientUnits="userSpaceOnUse" gradientTransform="matrix(-0.000982726,-66.0669,-66.0669,0.000982726,-31.6354,33.1706)"><stop offset="0" style="stop-color:rgb(240,139,0);stop-opacity:1"/><stop offset="0.61" style="stop-color:rgb(240,139,0);stop-opacity:1"/><stop offset="0.71" style="stop-color:rgb(255,173,0);stop-opacity:1"/><stop offset="1" style="stop-color:rgb(254,223,175);stop-opacity:1"/></linearGradient>
        <linearGradient id="_Linear7" x1="0" y1="0" x2="1" y2="0" gradientUnits="userSpaceOnUse" gradientTransform="matrix(-0.000891393,-36.8137,-36.8137,0.000891393,-17.0085,18.4811)"><stop offset="0" style="stop-color:rgb(240,139,0);stop-opacity:1"/><stop offset="0.61" style="stop-color:rgb(240,139,0);stop-opacity:1"/><stop offset="0.71" style="stop-color:rgb(255,173,0);stop-opacity:1"/><stop offset="1" style="stop-color:rgb(254,223,175);stop-opacity:1"/></linearGradient>
        <linearGradient id="_Linear8" x1="0" y1="0" x2="1" y2="0" gradientUnits="userSpaceOnUse" gradientTransform="matrix(-0.000102591,-51.6046,-51.6046,0.000102591,-24.4043,25.9091)"><stop offset="0" style="stop-color:rgb(240,139,0);stop-opacity:1"/><stop offset="0.61" style="stop-color:rgb(240,139,0);stop-opacity:1"/><stop offset="0.71" style="stop-color:rgb(255,173,0);stop-opacity:1"/><stop offset="1" style="stop-color:rgb(254,223,175);stop-opacity:1"/></linearGradient>
        <linearGradient id="_Linear9" x1="0" y1="0" x2="1" y2="0" gradientUnits="userSpaceOnUse" gradientTransform="matrix(6.15746e-05,-66.0667,-66.0667,-6.15746e-05,-31.6355,33.1712)"><stop offset="0" style="stop-color:rgb(240,139,0);stop-opacity:1"/><stop offset="0.61" style="stop-color:rgb(240,139,0);stop-opacity:1"/><stop offset="0.71" style="stop-color:rgb(255,173,0);stop-opacity:1"/><stop offset="1" style="stop-color:rgb(254,223,175);stop-opacity:1"/></linearGradient>
        <linearGradient id="_Linear10" x1="0" y1="0" x2="1" y2="0" gradientUnits="userSpaceOnUse" gradientTransform="matrix(0.000186063,-36.8137,-36.8137,-0.000186063,-17.0088,18.4806)"><stop offset="0" style="stop-color:rgb(240,139,0);stop-opacity:1"/><stop offset="0.61" style="stop-color:rgb(240,139,0);stop-opacity:1"/><stop offset="0.71" style="stop-color:rgb(255,173,0);stop-opacity:1"/><stop offset="1" style="stop-color:rgb(254,223,175);stop-opacity:1"/></linearGradient>
        <linearGradient id="_Linear11" x1="0" y1="0" x2="1" y2="0" gradientUnits="userSpaceOnUse" gradientTransform="matrix(0.000954666,-51.6046,-51.6046,-0.000954666,-24.4044,25.9096)"><stop offset="0" style="stop-color:rgb(240,139,0);stop-opacity:1"/><stop offset="0.61" style="stop-color:rgb(240,139,0);stop-opacity:1"/><stop offset="0.71" style="stop-color:rgb(255,173,0);stop-opacity:1"/><stop offset="1" style="stop-color:rgb(254,223,175);stop-opacity:1"/></linearGradient>
        <linearGradient id="_Linear12" x1="0" y1="0" x2="1" y2="0" gradientUnits="userSpaceOnUse" gradientTransform="matrix(6.15746e-05,-66.0667,-66.0667,-6.15746e-05,-31.6358,33.1712)"><stop offset="0" style="stop-color:rgb(240,139,0);stop-opacity:1"/><stop offset="0.61" style="stop-color:rgb(240,139,0);stop-opacity:1"/><stop offset="0.71" style="stop-color:rgb(255,173,0);stop-opacity:1"/><stop offset="1" style="stop-color:rgb(254,223,175);stop-opacity:1"/></linearGradient>
        <linearGradient id="_Linear13" x1="0" y1="0" x2="1" y2="0" gradientUnits="userSpaceOnUse" gradientTransform="matrix(0.000186498,-36.8138,-36.8138,-0.000186498,-17.0098,18.4806)"><stop offset="0" style="stop-color:rgb(240,139,0);stop-opacity:1"/><stop offset="0.61" style="stop-color:rgb(240,139,0);stop-opacity:1"/><stop offset="0.71" style="stop-color:rgb(255,173,0);stop-opacity:1"/><stop offset="1" style="stop-color:rgb(254,223,175);stop-opacity:1"/></linearGradient>
        <linearGradient id="_Linear14" x1="0" y1="0" x2="1" y2="0" gradientUnits="userSpaceOnUse" gradientTransform="matrix(0.000954229,-51.6045,-51.6045,-0.000954229,-24.4044,25.9087)"><stop offset="0" style="stop-color:rgb(240,139,0);stop-opacity:1"/><stop offset="0.61" style="stop-color:rgb(240,139,0);stop-opacity:1"/><stop offset="0.71" style="stop-color:rgb(255,173,0);stop-opacity:1"/><stop offset="1" style="stop-color:rgb(254,223,175);stop-opacity:1"/></linearGradient>
        <linearGradient id="_Linear15" x1="0" y1="0" x2="1" y2="0" gradientUnits="userSpaceOnUse" gradientTransform="matrix(6.15746e-05,-66.0667,-66.0667,-6.15746e-05,-31.6358,33.1712)"><stop offset="0" style="stop-color:rgb(240,139,0);stop-opacity:1"/><stop offset="0.61" style="stop-color:rgb(240,139,0);stop-opacity:1"/><stop offset="0.71" style="stop-color:rgb(255,173,0);stop-opacity:1"/><stop offset="1" style="stop-color:rgb(254,223,175);stop-opacity:1"/></linearGradient>
        <linearGradient id="_Linear16" x1="0" y1="0" x2="1" y2="0" gradientUnits="userSpaceOnUse" gradientTransform="matrix(0.000190771,-36.8137,-36.8137,-0.000190771,-17.0088,18.4811)"><stop offset="0" style="stop-color:rgb(240,139,0);stop-opacity:1"/><stop offset="0.61" style="stop-color:rgb(240,139,0);stop-opacity:1"/><stop offset="0.71" style="stop-color:rgb(255,173,0);stop-opacity:1"/><stop offset="1" style="stop-color:rgb(254,223,175);stop-opacity:1"/></linearGradient>
        <linearGradient id="_Linear17" x1="0" y1="0" x2="1" y2="0" gradientUnits="userSpaceOnUse" gradientTransform="matrix(0.000954666,-51.6046,-51.6046,-0.000954666,-24.4045,25.9091)"><stop offset="0" style="stop-color:rgb(240,139,0);stop-opacity:1"/><stop offset="0.61" style="stop-color:rgb(240,139,0);stop-opacity:1"/><stop offset="0.71" style="stop-color:rgb(255,173,0);stop-opacity:1"/><stop offset="1" style="stop-color:rgb(254,223,175);stop-opacity:1"/></linearGradient>
        <linearGradient id="_Linear18" x1="0" y1="0" x2="1" y2="0" gradientUnits="userSpaceOnUse" gradientTransform="matrix(6.15746e-05,-66.0667,-66.0667,-6.15746e-05,-31.6363,33.1712)"><stop offset="0" style="stop-color:rgb(240,139,0);stop-opacity:1"/><stop offset="0.61" style="stop-color:rgb(240,139,0);stop-opacity:1"/><stop offset="0.71" style="stop-color:rgb(255,173,0);stop-opacity:1"/><stop offset="1" style="stop-color:rgb(254,223,175);stop-opacity:1"/></linearGradient>
        <linearGradient id="_Linear19" x1="0" y1="0" x2="1" y2="0" gradientUnits="userSpaceOnUse" gradientTransform="matrix(0.000186498,-36.8138,-36.8138,-0.000186498,-17.0099,18.4807)"><stop offset="0" style="stop-color:rgb(240,139,0);stop-opacity:1"/><stop offset="0.61" style="stop-color:rgb(240,139,0);stop-opacity:1"/><stop offset="0.71" style="stop-color:rgb(255,173,0);stop-opacity:1"/><stop offset="1" style="stop-color:rgb(254,223,175);stop-opacity:1"/></linearGradient>
        <linearGradient id="_Linear20" x1="0" y1="0" x2="1" y2="0" gradientUnits="userSpaceOnUse" gradientTransform="matrix(0.000954666,-51.6046,-51.6046,-0.000954666,-24.4046,25.9087)"><stop offset="0" style="stop-color:rgb(240,139,0);stop-opacity:1"/><stop offset="0.61" style="stop-color:rgb(240,139,0);stop-opacity:1"/><stop offset="0.71" style="stop-color:rgb(255,173,0);stop-opacity:1"/><stop offset="1" style="stop-color:rgb(254,223,175);stop-opacity:1"/></linearGradient>
        <linearGradient id="_Linear21" x1="0" y1="0" x2="1" y2="0" gradientUnits="userSpaceOnUse" gradientTransform="matrix(6.15746e-05,-66.0667,-66.0667,-6.15746e-05,-31.6358,33.1713)"><stop offset="0" style="stop-color:rgb(240,139,0);stop-opacity:1"/><stop offset="0.61" style="stop-color:rgb(240,139,0);stop-opacity:1"/><stop offset="0.71" style="stop-color:rgb(255,173,0);stop-opacity:1"/><stop offset="1" style="stop-color:rgb(254,223,175);stop-opacity:1"/></linearGradient>
        <linearGradient id="_Linear22" x1="0" y1="0" x2="1" y2="0" gradientUnits="userSpaceOnUse" gradientTransform="matrix(-0.000891096,-36.814,-36.814,0.000891096,-17.0079,18.4793)"><stop offset="0" style="stop-color:rgb(240,139,0);stop-opacity:1"/><stop offset="0.61" style="stop-color:rgb(240,139,0);stop-opacity:1"/><stop offset="0.71" style="stop-color:rgb(255,173,0);stop-opacity:1"/><stop offset="1" style="stop-color:rgb(254,223,175);stop-opacity:1"/></linearGradient>
        <linearGradient id="_Linear23" x1="0" y1="0" x2="1" y2="0" gradientUnits="userSpaceOnUse" gradientTransform="matrix(-0.000102722,-51.6048,-51.6048,0.000102722,-24.4037,25.9083)"><stop offset="0" style="stop-color:rgb(240,139,0);stop-opacity:1"/><stop offset="0.61" style="stop-color:rgb(240,139,0);stop-opacity:1"/><stop offset="0.71" style="stop-color:rgb(255,173,0);stop-opacity:1"/><stop offset="1" style="stop-color:rgb(254,223,175);stop-opacity:1"/></linearGradient>
        <linearGradient id="_Linear24" x1="0" y1="0" x2="1" y2="0" gradientUnits="userSpaceOnUse" gradientTransform="matrix(-0.000982726,-66.0669,-66.0669,0.000982726,-31.6355,33.1713)"><stop offset="0" style="stop-color:rgb(240,139,0);stop-opacity:1"/><stop offset="0.61" style="stop-color:rgb(240,139,0);stop-opacity:1"/><stop offset="0.71" style="stop-color:rgb(255,173,0);stop-opacity:1"/><stop offset="1" style="stop-color:rgb(254,223,175);stop-opacity:1"/></linearGradient>
        <linearGradient id="_Linear25" x1="0" y1="0" x2="1" y2="0" gradientUnits="userSpaceOnUse" gradientTransform="matrix(-0.000891393,-36.8137,-36.8137,0.000891393,-17.0086,18.4808)"><stop offset="0" style="stop-color:rgb(240,139,0);stop-opacity:1"/><stop offset="0.61" style="stop-color:rgb(240,139,0);stop-opacity:1"/><stop offset="0.71" style="stop-color:rgb(255,173,0);stop-opacity:1"/><stop offset="1" style="stop-color:rgb(254,223,175);stop-opacity:1"/></linearGradient>
        <linearGradient id="_Linear26" x1="0" y1="0" x2="1" y2="0" gradientUnits="userSpaceOnUse" gradientTransform="matrix(-0.000102591,-51.6046,-51.6046,0.000102591,-24.4045,25.9088)"><stop offset="0" style="stop-color:rgb(240,139,0);stop-opacity:1"/><stop offset="0.61" style="stop-color:rgb(240,139,0);stop-opacity:1"/><stop offset="0.71" style="stop-color:rgb(255,173,0);stop-opacity:1"/><stop offset="1" style="stop-color:rgb(254,223,175);stop-opacity:1"/></linearGradient>
        <linearGradient id="_Linear27" x1="0" y1="0" x2="1" y2="0" gradientUnits="userSpaceOnUse" gradientTransform="matrix(-0.000982592,-66.0667,-66.0667,0.000982592,-31.6347,33.1704)"><stop offset="0" style="stop-color:rgb(240,139,0);stop-opacity:1"/><stop offset="0.61" style="stop-color:rgb(240,139,0);stop-opacity:1"/><stop offset="0.71" style="stop-color:rgb(255,173,0);stop-opacity:1"/><stop offset="1" style="stop-color:rgb(254,223,175);stop-opacity:1"/></linearGradient>
        <linearGradient id="_Linear28" x1="0" y1="0" x2="1" y2="0" gradientUnits="userSpaceOnUse" gradientTransform="matrix(0.000190771,-36.8137,-36.8137,-0.000190771,-17.0089,18.4814)"><stop offset="0" style="stop-color:rgb(240,139,0);stop-opacity:1"/><stop offset="0.61" style="stop-color:rgb(240,139,0);stop-opacity:1"/><stop offset="0.71" style="stop-color:rgb(255,173,0);stop-opacity:1"/><stop offset="1" style="stop-color:rgb(254,223,175);stop-opacity:1"/></linearGradient>
        <linearGradient id="_Linear29" x1="0" y1="0" x2="1" y2="0" gradientUnits="userSpaceOnUse" gradientTransform="matrix(0.000954666,-51.6046,-51.6046,-0.000954666,-24.4051,25.9089)"><stop offset="0" style="stop-color:rgb(240,139,0);stop-opacity:1"/><stop offset="0.61" style="stop-color:rgb(240,139,0);stop-opacity:1"/><stop offset="0.71" style="stop-color:rgb(255,173,0);stop-opacity:1"/><stop offset="1" style="stop-color:rgb(254,223,175);stop-opacity:1"/></linearGradient>
        <linearGradient id="_Linear30" x1="0" y1="0" x2="1" y2="0" gradientUnits="userSpaceOnUse" gradientTransform="matrix(6.15746e-05,-66.0667,-66.0667,-6.15746e-05,-31.6354,33.1715)"><stop offset="0" style="stop-color:rgb(240,139,0);stop-opacity:1"/><stop offset="0.61" style="stop-color:rgb(240,139,0);stop-opacity:1"/><stop offset="0.71" style="stop-color:rgb(255,173,0);stop-opacity:1"/><stop offset="1" style="stop-color:rgb(254,223,175);stop-opacity:1"/></linearGradient>
        <linearGradient id="_Linear31" x1="0" y1="0" x2="1" y2="0" gradientUnits="userSpaceOnUse" gradientTransform="matrix(-0.000891393,-36.8137,-36.8137,0.000891393,-17.008,18.48)"><stop offset="0" style="stop-color:rgb(240,139,0);stop-opacity:1"/><stop offset="0.61" style="stop-color:rgb(240,139,0);stop-opacity:1"/><stop offset="0.71" style="stop-color:rgb(255,173,0);stop-opacity:1"/><stop offset="1" style="stop-color:rgb(254,223,175);stop-opacity:1"/></linearGradient>
        <linearGradient id="_Linear32" x1="0" y1="0" x2="1" y2="0" gradientUnits="userSpaceOnUse" gradientTransform="matrix(-0.000103025,-51.6045,-51.6045,0.000103025,-24.4038,25.908)"><stop offset="0" style="stop-color:rgb(240,139,0);stop-opacity:1"/><stop offset="0.61" style="stop-color:rgb(240,139,0);stop-opacity:1"/><stop offset="0.71" style="stop-color:rgb(255,173,0);stop-opacity:1"/><stop offset="1" style="stop-color:rgb(254,223,175);stop-opacity:1"/></linearGradient>
        <linearGradient id="_Linear33" x1="0" y1="0" x2="1" y2="0" gradientUnits="userSpaceOnUse" gradientTransform="matrix(-0.000982592,-66.0667,-66.0667,0.000982592,-31.6355,33.1706)"><stop offset="0" style="stop-color:rgb(240,139,0);stop-opacity:1"/><stop offset="0.61" style="stop-color:rgb(240,139,0);stop-opacity:1"/><stop offset="0.71" style="stop-color:rgb(255,173,0);stop-opacity:1"/><stop offset="1" style="stop-color:rgb(254,223,175);stop-opacity:1"/></linearGradient>
        <linearGradient id="_Linear34" x1="0" y1="0" x2="1" y2="0" gradientUnits="userSpaceOnUse" gradientTransform="matrix(-0.000891393,-36.8137,-36.8137,0.000891393,-17.008,18.48)"><stop offset="0" style="stop-color:rgb(240,139,0);stop-opacity:1"/><stop offset="0.61" style="stop-color:rgb(240,139,0);stop-opacity:1"/><stop offset="0.71" style="stop-color:rgb(255,173,0);stop-opacity:1"/><stop offset="1" style="stop-color:rgb(254,223,175);stop-opacity:1"/></linearGradient>
        <linearGradient id="_Linear35" x1="0" y1="0" x2="1" y2="0" gradientUnits="userSpaceOnUse" gradientTransform="matrix(-0.000103025,-51.6045,-51.6045,0.000103025,-24.4038,25.908)"><stop offset="0" style="stop-color:rgb(240,139,0);stop-opacity:1"/><stop offset="0.61" style="stop-color:rgb(240,139,0);stop-opacity:1"/><stop offset="0.71" style="stop-color:rgb(255,173,0);stop-opacity:1"/><stop offset="1" style="stop-color:rgb(254,223,175);stop-opacity:1"/></linearGradient>
        <linearGradient id="_Linear36" x1="0" y1="0" x2="1" y2="0" gradientUnits="userSpaceOnUse" gradientTransform="matrix(6.15746e-05,-66.0667,-66.0667,-6.15746e-05,-31.6361,33.1716)"><stop offset="0" style="stop-color:rgb(240,139,0);stop-opacity:1"/><stop offset="0.61" style="stop-color:rgb(240,139,0);stop-opacity:1"/><stop offset="0.71" style="stop-color:rgb(255,173,0);stop-opacity:1"/><stop offset="1" style="stop-color:rgb(254,223,175);stop-opacity:1"/></linearGradient>
        <linearGradient id="_Linear37" x1="0" y1="0" x2="1" y2="0" gradientUnits="userSpaceOnUse" gradientTransform="matrix(0.000190771,-36.8137,-36.8137,-0.000190771,-17.0087,18.4809)"><stop offset="0" style="stop-color:rgb(240,139,0);stop-opacity:1"/><stop offset="0.61" style="stop-color:rgb(240,139,0);stop-opacity:1"/><stop offset="0.71" style="stop-color:rgb(255,173,0);stop-opacity:1"/><stop offset="1" style="stop-color:rgb(254,223,175);stop-opacity:1"/></linearGradient>
        <linearGradient id="_Linear38" x1="0" y1="0" x2="1" y2="0" gradientUnits="userSpaceOnUse" gradientTransform="matrix(-0.000102591,-51.6046,-51.6046,0.000102591,-24.4038,25.9082)"><stop offset="0" style="stop-color:rgb(240,139,0);stop-opacity:1"/><stop offset="0.61" style="stop-color:rgb(240,139,0);stop-opacity:1"/><stop offset="0.71" style="stop-color:rgb(255,173,0);stop-opacity:1"/><stop offset="1" style="stop-color:rgb(254,223,175);stop-opacity:1"/></linearGradient>
        <linearGradient id="_Linear39" x1="0" y1="0" x2="1" y2="0" gradientUnits="userSpaceOnUse" gradientTransform="matrix(6.15746e-05,-66.0667,-66.0667,-6.15746e-05,-31.6357,33.1712)"><stop offset="0" style="stop-color:rgb(240,139,0);stop-opacity:1"/><stop offset="0.61" style="stop-color:rgb(240,139,0);stop-opacity:1"/><stop offset="0.71" style="stop-color:rgb(255,173,0);stop-opacity:1"/><stop offset="1" style="stop-color:rgb(254,223,175);stop-opacity:1"/></linearGradient>
        <linearGradient id="_Linear40" x1="0" y1="0" x2="1" y2="0" gradientUnits="userSpaceOnUse" gradientTransform="matrix(-0.000891096,-36.814,-36.814,0.000891096,-17.0088,18.481)"><stop offset="0" style="stop-color:rgb(240,139,0);stop-opacity:1"/><stop offset="0.61" style="stop-color:rgb(240,139,0);stop-opacity:1"/><stop offset="0.71" style="stop-color:rgb(255,173,0);stop-opacity:1"/><stop offset="1" style="stop-color:rgb(254,223,175);stop-opacity:1"/></linearGradient>
        <linearGradient id="_Linear41" x1="0" y1="0" x2="1" y2="0" gradientUnits="userSpaceOnUse" gradientTransform="matrix(-0.000102156,-51.6047,-51.6047,0.000102156,-24.4041,25.9088)"><stop offset="0" style="stop-color:rgb(240,139,0);stop-opacity:1"/><stop offset="0.61" style="stop-color:rgb(240,139,0);stop-opacity:1"/><stop offset="0.71" style="stop-color:rgb(255,173,0);stop-opacity:1"/><stop offset="1" style="stop-color:rgb(254,223,175);stop-opacity:1"/></linearGradient>
        <linearGradient id="_Linear42" x1="0" y1="0" x2="1" y2="0" gradientUnits="userSpaceOnUse" gradientTransform="matrix(-0.000982726,-66.0669,-66.0669,0.000982726,-31.6353,33.171)"><stop offset="0" style="stop-color:rgb(240,139,0);stop-opacity:1"/><stop offset="0.61" style="stop-color:rgb(240,139,0);stop-opacity:1"/><stop offset="0.71" style="stop-color:rgb(255,173,0);stop-opacity:1"/><stop offset="1" style="stop-color:rgb(254,223,175);stop-opacity:1"/></linearGradient>
        <linearGradient id="_Linear43" x1="0" y1="0" x2="1" y2="0" gradientUnits="userSpaceOnUse" gradientTransform="matrix(6.15746e-05,-66.0667,-66.0667,-6.15746e-05,-31.636,33.1713)"><stop offset="0" style="stop-color:rgb(240,139,0);stop-opacity:1"/><stop offset="0.61" style="stop-color:rgb(240,139,0);stop-opacity:1"/><stop offset="0.71" style="stop-color:rgb(255,173,0);stop-opacity:1"/><stop offset="1" style="stop-color:rgb(254,223,175);stop-opacity:1"/></linearGradient>
        <linearGradient id="_Linear44" x1="0" y1="0" x2="1" y2="0" gradientUnits="userSpaceOnUse" gradientTransform="matrix(-0.000891096,-36.814,-36.814,0.000891096,-17.0088,18.481)"><stop offset="0" style="stop-color:rgb(240,139,0);stop-opacity:1"/><stop offset="0.61" style="stop-color:rgb(240,139,0);stop-opacity:1"/><stop offset="0.71" style="stop-color:rgb(255,173,0);stop-opacity:1"/><stop offset="1" style="stop-color:rgb(254,223,175);stop-opacity:1"/></linearGradient>
        <linearGradient id="_Linear45" x1="0" y1="0" x2="1" y2="0" gradientUnits="userSpaceOnUse" gradientTransform="matrix(-0.000102156,-51.6047,-51.6047,0.000102156,-24.4041,25.9088)"><stop offset="0" style="stop-color:rgb(240,139,0);stop-opacity:1"/><stop offset="0.61" style="stop-color:rgb(240,139,0);stop-opacity:1"/><stop offset="0.71" style="stop-color:rgb(255,173,0);stop-opacity:1"/><stop offset="1" style="stop-color:rgb(254,223,175);stop-opacity:1"/></linearGradient>
    </defs>
</svg>
