<?xml version="1.0" encoding="UTF-8" standalone="no"?>
<!DOCTYPE svg PUBLIC "-//W3C//DTD SVG 1.1//EN" "http://www.w3.org/Graphics/SVG/1.1/DTD/svg11.dtd">
<svg width="100%" height="100%" viewBox="0 0 1167 1167" version="1.1" xmlns="http://www.w3.org/2000/svg" xmlns:xlink="http://www.w3.org/1999/xlink" xml:space="preserve" xmlns:serif="http://www.serif.com/" style="fill-rule:evenodd;clip-rule:evenodd;stroke-linejoin:round;stroke-miterlimit:2;">
    <g transform="matrix(1,0,0,1,-977.308,-460.592)">
        <g transform="matrix(4.16667,0,0,4.16667,0,0)">
            <g transform="matrix(35.9799,0,0,-35.9799,470.511,311.109)">
                <path d="M0.414,0.502C0.409,0.489 0.403,0.473 0.398,0.456C0.387,0.426 0.375,0.391 0.357,0.358L0.244,0.123L0.704,-0.118C0.698,-0.129 0.691,-0.144 0.681,-0.16L0.586,-0.315C0.574,-0.335 0.562,-0.355 0.551,-0.374C0.53,-0.409 0.51,-0.442 0.492,-0.468L0.462,-0.508L0.093,-0.245L0.102,-0.232C0.121,-0.21 0.138,-0.181 0.156,-0.15L0.235,-0.022L0.498,-0.174L0.421,-0.301L0.241,-0.183L0.205,-0.238L0.442,-0.393L0.589,-0.15L0.212,0.067L0.1,-0.116C0.083,-0.145 0.067,-0.172 0.051,-0.191L0,-0.259L0.476,-0.599L0.545,-0.506C0.564,-0.479 0.585,-0.445 0.607,-0.408C0.618,-0.389 0.63,-0.369 0.642,-0.35L0.736,-0.195C0.749,-0.175 0.758,-0.157 0.766,-0.139L0.79,-0.089L0.331,0.152L0.415,0.328C0.435,0.364 0.448,0.402 0.46,0.435C0.465,0.45 0.47,0.465 0.476,0.479L0.489,0.515L0.916,0.362L0.862,0.216C0.851,0.188 0.838,0.161 0.826,0.137C0.82,0.124 0.814,0.111 0.809,0.1L0.798,0.077L0.522,0.207L0.552,0.268C0.564,0.292 0.575,0.316 0.582,0.334L0.785,0.252L0.81,0.313L0.542,0.422L0.531,0.388C0.531,0.387 0.516,0.341 0.493,0.298L0.435,0.176L0.828,-0.011L0.868,0.073C0.873,0.084 0.879,0.095 0.885,0.108C0.898,0.134 0.912,0.163 0.923,0.193L1,0.401L0.45,0.599L0.414,0.502Z" style="fill:url(#_Linear1);fill-rule:nonzero;"/>
            </g>
            <g transform="matrix(26.9032,0,0,-26.9032,487.38,273.599)">
                <path d="M0.202,0.412L0.149,0.067L0.833,-0.05L0.822,-0.119C0.818,-0.159 0.805,-0.21 0.791,-0.263C0.783,-0.292 0.776,-0.321 0.769,-0.349L0.692,-0.648L0.114,-0.464C0.116,-0.456 0.118,-0.448 0.12,-0.438L0.202,-0.122L0.6,-0.206L0.55,-0.4L0.272,-0.324L0.249,-0.408L0.613,-0.508L0.708,-0.139L0.138,-0.019L0.035,-0.418C0.027,-0.452 0.018,-0.474 0.018,-0.476L0,-0.52L0.747,-0.757L0.854,-0.37C0.861,-0.342 0.868,-0.313 0.876,-0.286C0.891,-0.229 0.905,-0.175 0.91,-0.13L0.933,0.022L0.249,0.139L0.289,0.404L0.302,0.667L0.908,0.647L0.897,0.439C0.895,0.387 0.891,0.321 0.882,0.271L0.877,0.236L0.473,0.289L0.487,0.384L0.491,0.475L0.785,0.454L0.791,0.542L0.408,0.569L0.4,0.392L0.373,0.213L0.951,0.138L0.969,0.257C0.979,0.31 0.983,0.38 0.985,0.435L1,0.732L0.218,0.757L0.202,0.412Z" style="fill:url(#_Linear2);fill-rule:nonzero;"/>
            </g>
            <g transform="matrix(43.0844,0,0,-43.0844,411.093,365.789)">
                <path d="M0.7,0.392C0.7,0.392 0.696,0.389 0.691,0.386L0.517,0.28C0.486,0.261 0.455,0.242 0.429,0.231L0.35,0.194L0.543,-0.195L0.506,-0.212C0.493,-0.218 0.479,-0.225 0.464,-0.233C0.435,-0.247 0.403,-0.263 0.37,-0.275L0.189,-0.341L0.069,0.018L0.172,0.056C0.184,0.06 0.195,0.064 0.206,0.068C0.227,0.075 0.246,0.082 0.262,0.09L0.275,0.096L0.379,-0.136L0.37,-0.14C0.357,-0.146 0.341,-0.154 0.323,-0.16L0.263,-0.182L0.199,-0.013L0.148,-0.032L0.231,-0.252L0.341,-0.212C0.36,-0.205 0.379,-0.197 0.394,-0.189L0.451,-0.162L0.302,0.17L0.237,0.139C0.224,0.132 0.206,0.126 0.188,0.12C0.176,0.115 0.164,0.111 0.153,0.107L0,0.051L0.155,-0.412L0.389,-0.326C0.425,-0.313 0.458,-0.297 0.488,-0.282C0.503,-0.275 0.516,-0.268 0.53,-0.262L0.617,-0.22L0.424,0.168L0.451,0.181C0.48,0.193 0.512,0.213 0.546,0.234L0.711,0.334L0.924,0.021L0.704,-0.113L0.582,0.11L0.682,0.171L0.78,0.015L0.826,0.044L0.7,0.246L0.509,0.13L0.683,-0.19L0.968,-0.016L1,0.007L0.741,0.387L0.723,0.412L0.7,0.392Z" style="fill:url(#_Linear3);fill-rule:nonzero;"/>
            </g>
            <g transform="matrix(41.5697,0,0,-41.5697,443.992,343.124)">
                <path d="M0.546,0.423C0.533,0.406 0.514,0.385 0.494,0.364C0.482,0.35 0.47,0.337 0.458,0.324L0.365,0.222C0.355,0.209 0.345,0.199 0.336,0.193L0.302,0.161L0.616,-0.16L0.467,-0.295C0.44,-0.322 0.41,-0.344 0.383,-0.364C0.369,-0.373 0.357,-0.383 0.347,-0.391L0.312,-0.417L0.079,-0.101L0.17,-0.033C0.189,-0.019 0.207,-0.002 0.222,0.012C0.23,0.02 0.238,0.027 0.245,0.033L0.257,0.043L0.433,-0.152L0.384,-0.197C0.367,-0.213 0.349,-0.228 0.336,-0.238L0.218,-0.091L0.174,-0.126L0.325,-0.315L0.347,-0.301C0.349,-0.299 0.388,-0.272 0.423,-0.239L0.513,-0.156L0.261,0.124L0.207,0.075C0.2,0.069 0.192,0.062 0.184,0.054C0.169,0.04 0.153,0.025 0.136,0.012L0,-0.089L0.3,-0.496L0.381,-0.436C0.392,-0.428 0.404,-0.419 0.416,-0.41C0.445,-0.389 0.477,-0.365 0.506,-0.337L0.697,-0.163L0.384,0.159C0.391,0.166 0.4,0.174 0.408,0.184L0.5,0.286C0.512,0.299 0.524,0.312 0.536,0.325C0.557,0.348 0.577,0.369 0.592,0.39L0.612,0.416L0.921,0.175L0.907,0.155C0.889,0.13 0.86,0.098 0.837,0.073L0.746,-0.027L0.555,0.155L0.637,0.245L0.783,0.121L0.82,0.164L0.632,0.323L0.476,0.152L0.749,-0.108L0.878,0.034C0.905,0.062 0.934,0.095 0.953,0.122L1,0.185L0.601,0.496L0.546,0.423Z" style="fill:url(#_Linear4);fill-rule:nonzero;"/>
            </g>
            <g transform="matrix(40.6817,0,0,-40.6817,331.334,376.905)">
                <path d="M0,-0.161L0.023,-0.172C0.024,-0.173 0.033,-0.177 0.047,-0.18L0.255,-0.234C0.27,-0.238 0.285,-0.242 0.3,-0.246C0.342,-0.256 0.381,-0.267 0.414,-0.27L0.515,-0.286L0.591,0.167L0.766,0.141L0.94,0.133L0.928,-0.268L0.773,-0.26C0.738,-0.259 0.705,-0.257 0.68,-0.252L0.656,-0.248L0.69,0.019C0.707,0.016 0.73,0.013 0.753,0.01L0.814,0.007L0.8,-0.187L0.858,-0.191L0.876,0.062L0.758,0.068C0.714,0.073 0.671,0.081 0.67,0.081L0.64,0.086L0.591,-0.297L0.67,-0.309C0.698,-0.315 0.733,-0.316 0.77,-0.318L0.984,-0.329L1,0.188L0.772,0.199L0.543,0.233L0.467,-0.219L0.422,-0.212C0.392,-0.209 0.354,-0.2 0.315,-0.189C0.299,-0.185 0.284,-0.181 0.269,-0.178L0.072,-0.127L0.192,0.256L0.418,0.198L0.363,-0.066L0.235,-0.033L0.285,0.151L0.229,0.166L0.164,-0.075L0.408,-0.137L0.487,0.24L0.26,0.299L0.154,0.329L0,-0.161Z" style="fill:url(#_Linear5);fill-rule:nonzero;"/>
            </g>
            <g transform="matrix(40.3638,0,0,-40.3638,374.108,377.412)">
                <path d="M0.63,0.265C0.6,0.257 0.568,0.252 0.54,0.249C0.523,0.246 0.508,0.244 0.495,0.242L0.403,0.228L0.469,-0.23L0.401,-0.24C0.386,-0.243 0.369,-0.245 0.353,-0.247L0.062,-0.262L0.059,0.142L0.294,0.155L0.322,-0.116L0.189,-0.123L0.181,0.07L0.122,0.067L0.134,-0.184L0.325,-0.174C0.346,-0.174 0.359,-0.172 0.359,-0.172L0.387,-0.168L0.347,0.216L0,0.198L0.003,-0.323L0.358,-0.305C0.376,-0.303 0.394,-0.301 0.41,-0.298L0.535,-0.279L0.469,0.179L0.505,0.184C0.518,0.187 0.532,0.189 0.547,0.191C0.577,0.195 0.612,0.199 0.645,0.209L0.815,0.252L0.927,-0.136C0.819,-0.165 0.707,-0.193 0.66,-0.202L0.611,0.066C0.627,0.068 0.65,0.072 0.673,0.079L0.732,0.094L0.779,-0.096L0.836,-0.082L0.775,0.166L0.657,0.135C0.636,0.129 0.615,0.126 0.6,0.124L0.542,0.115L0.607,-0.24L0.61,-0.253L0.621,-0.259C0.633,-0.267 0.643,-0.273 0.971,-0.185L1,-0.177L0.856,0.323L0.63,0.265Z" style="fill:url(#_Linear6);fill-rule:nonzero;"/>
            </g>
            <g transform="matrix(41.2958,0,0,-41.2958,261.41,340.96)">
                <path d="M0,0.2L0.061,0.119C0.068,0.11 0.075,0.1 0.083,0.089C0.105,0.059 0.131,0.024 0.161,-0.007L0.336,-0.199L0.659,0.117C0.667,0.11 0.675,0.102 0.685,0.093L0.788,0C0.801,-0.012 0.814,-0.024 0.827,-0.036C0.85,-0.057 0.872,-0.078 0.892,-0.092L0.919,-0.112L0.677,-0.424L0.618,-0.379L0.474,-0.248L0.656,-0.055L0.746,-0.137L0.622,-0.285L0.666,-0.322L0.825,-0.132L0.653,0.025L0.392,-0.251L0.535,-0.381L0.688,-0.503L1,-0.1L0.926,-0.045C0.908,-0.033 0.888,-0.014 0.866,0.006C0.853,0.018 0.839,0.031 0.826,0.043L0.724,0.135C0.711,0.147 0.701,0.156 0.693,0.165L0.662,0.199L0.339,-0.117L0.203,0.033C0.174,0.061 0.15,0.094 0.129,0.123C0.121,0.134 0.113,0.145 0.106,0.153L0.08,0.188L0.398,0.423L0.467,0.33C0.495,0.297 0.524,0.265 0.543,0.245L0.346,0.067C0.312,0.104 0.278,0.142 0.26,0.164L0.408,0.283L0.372,0.328L0.202,0.191L0.193,0.183L0.192,0.171C0.191,0.156 0.191,0.152 0.323,0.007L0.343,-0.013L0.625,0.241L0.605,0.263C0.604,0.263 0.556,0.314 0.511,0.366L0.409,0.503L0,0.2Z" style="fill:url(#_Linear7);fill-rule:nonzero;"/>
            </g>
            <g transform="matrix(43.0952,0,0,-43.0952,292.115,364.378)">
                <path d="M0,0.021L0.077,-0.036C0.099,-0.053 0.128,-0.07 0.159,-0.088C0.175,-0.098 0.191,-0.108 0.208,-0.118L0.337,-0.197C0.356,-0.209 0.373,-0.218 0.384,-0.222L0.425,-0.242L0.627,0.141L0.774,0.07C0.806,0.053 0.839,0.041 0.868,0.031C0.879,0.027 0.89,0.023 0.899,0.019L0.93,0.008L0.801,-0.348L0.681,-0.303C0.635,-0.283 0.59,-0.262 0.563,-0.249L0.673,-0.019C0.725,-0.045 0.758,-0.06 0.779,-0.069L0.71,-0.238L0.761,-0.259L0.84,-0.063L0.813,-0.052L0.82,-0.026C0.808,-0.023 0.735,0.011 0.672,0.042L0.647,0.054L0.491,-0.274L0.515,-0.286C0.515,-0.286 0.586,-0.321 0.66,-0.354L0.834,-0.418L1,0.041L0.919,0.071C0.909,0.074 0.898,0.078 0.887,0.082C0.859,0.092 0.828,0.103 0.799,0.119L0.603,0.213L0.401,-0.17C0.391,-0.165 0.38,-0.159 0.366,-0.15L0.236,-0.072C0.22,-0.061 0.203,-0.051 0.187,-0.041C0.158,-0.024 0.13,-0.007 0.11,0.008L0.076,0.033L0.296,0.341L0.307,0.333C0.329,0.314 0.361,0.295 0.389,0.279L0.482,0.222L0.355,0.002L0.248,0.067L0.347,0.216L0.301,0.247L0.171,0.049L0.374,-0.074L0.557,0.241L0.417,0.326C0.392,0.34 0.362,0.359 0.341,0.376L0.285,0.418L0,0.021Z" style="fill:url(#_Linear8);fill-rule:nonzero;"/>
            </g>
            <g transform="matrix(26.1378,0,0,-26.1378,234.555,270.551)">
                <path d="M0,0.766L0.028,0.217L0.069,-0.055L0.776,0.048L0.785,-0.007C0.788,-0.027 0.791,-0.049 0.794,-0.072C0.801,-0.119 0.808,-0.172 0.823,-0.223L0.891,-0.486L0.291,-0.66L0.222,-0.389C0.212,-0.349 0.202,-0.312 0.196,-0.284L0.19,-0.247L0.602,-0.17C0.605,-0.196 0.612,-0.229 0.623,-0.266L0.646,-0.358L0.352,-0.431L0.374,-0.519L0.757,-0.424L0.71,-0.243C0.7,-0.207 0.693,-0.177 0.691,-0.154L0.678,-0.064L0.088,-0.174L0.107,-0.3C0.114,-0.332 0.124,-0.371 0.134,-0.411L0.227,-0.773L1,-0.548L0.91,-0.199C0.896,-0.153 0.89,-0.104 0.884,-0.06C0.881,-0.035 0.877,-0.011 0.874,0.008L0.852,0.15L0.145,0.047L0.118,0.226L0.095,0.676L0.719,0.682L0.737,0.319L0.32,0.274L0.31,0.479L0.607,0.493L0.603,0.584L0.215,0.565L0.23,0.27C0.231,0.236 0.236,0.215 0.236,0.215L0.244,0.175L0.839,0.238L0.805,0.773L0,0.766Z" style="fill:url(#_Linear9);fill-rule:nonzero;"/>
            </g>
            <g transform="matrix(35.4374,0,0,-35.4374,241.348,308.423)">
                <path d="M0,0.421L0.104,0.137C0.119,0.093 0.14,0.052 0.158,0.016C0.166,-0.001 0.175,-0.018 0.182,-0.035L0.233,-0.141L0.706,0.093L0.722,0.059C0.74,0.015 0.773,-0.038 0.802,-0.085L0.906,-0.256L0.525,-0.515C0.521,-0.509 0.517,-0.502 0.512,-0.494L0.363,-0.247L0.634,-0.099L0.708,-0.221L0.518,-0.34L0.553,-0.396L0.799,-0.243L0.658,-0.011L0.269,-0.222L0.455,-0.528C0.474,-0.56 0.488,-0.58 0.488,-0.58L0.507,-0.608L0.97,-0.293L1,-0.273L0.978,-0.245C0.977,-0.244 0.974,-0.24 0.969,-0.232L0.859,-0.05C0.831,-0.005 0.799,0.046 0.782,0.086L0.736,0.182L0.264,-0.051L0.243,-0.007C0.235,0.009 0.227,0.027 0.217,0.046C0.2,0.08 0.181,0.119 0.167,0.159L0.086,0.38L0.523,0.525L0.569,0.399C0.574,0.385 0.58,0.371 0.584,0.357C0.593,0.332 0.602,0.309 0.61,0.29L0.618,0.274L0.336,0.148L0.334,0.151C0.324,0.171 0.314,0.195 0.307,0.217L0.28,0.289L0.486,0.367L0.462,0.429L0.195,0.328L0.244,0.195C0.255,0.162 0.268,0.134 0.275,0.121L0.304,0.061L0.708,0.241L0.671,0.318C0.663,0.335 0.655,0.357 0.647,0.379C0.642,0.393 0.637,0.408 0.632,0.422L0.563,0.608L0,0.421Z" style="fill:url(#_Linear10);fill-rule:nonzero;"/>
            </g>
            <g transform="matrix(35.9877,0,0,-35.9877,242.508,189.891)">
                <path d="M0.455,0.506C0.436,0.479 0.415,0.445 0.393,0.408C0.382,0.389 0.37,0.369 0.358,0.35L0.264,0.195C0.251,0.176 0.243,0.158 0.233,0.139L0.21,0.09L0.669,-0.152L0.584,-0.328C0.565,-0.364 0.552,-0.402 0.54,-0.435C0.535,-0.45 0.53,-0.465 0.524,-0.478L0.511,-0.515L0.084,-0.362L0.138,-0.216C0.149,-0.188 0.162,-0.161 0.174,-0.137C0.18,-0.123 0.186,-0.111 0.191,-0.1L0.202,-0.077L0.477,-0.207L0.448,-0.268C0.435,-0.292 0.425,-0.316 0.418,-0.334L0.215,-0.252L0.19,-0.313L0.458,-0.421L0.469,-0.387C0.469,-0.387 0.484,-0.341 0.506,-0.298L0.565,-0.176L0.172,0.011L0.132,-0.073C0.127,-0.084 0.121,-0.095 0.115,-0.108C0.102,-0.134 0.088,-0.162 0.077,-0.193L0,-0.401L0.55,-0.599L0.585,-0.502C0.591,-0.488 0.596,-0.473 0.602,-0.457C0.613,-0.426 0.625,-0.391 0.643,-0.358L0.756,-0.123L0.296,0.118C0.302,0.129 0.309,0.144 0.319,0.16L0.413,0.315C0.426,0.335 0.438,0.355 0.449,0.374C0.47,0.409 0.49,0.442 0.508,0.467L0.538,0.508L0.907,0.245L0.898,0.232C0.879,0.21 0.862,0.181 0.843,0.15L0.765,0.022L0.502,0.174L0.579,0.301L0.759,0.183L0.795,0.238L0.558,0.393L0.411,0.15L0.788,-0.067L0.9,0.117C0.917,0.145 0.933,0.172 0.949,0.191L1,0.259L0.524,0.599L0.455,0.506Z" style="fill:url(#_Linear11);fill-rule:nonzero;"/>
            </g>
            <g transform="matrix(26.9069,0,0,-26.9069,234.716,227.402)">
                <path d="M0.146,0.37C0.139,0.342 0.132,0.314 0.124,0.287C0.109,0.23 0.095,0.175 0.091,0.13L0.067,-0.022L0.751,-0.139L0.711,-0.403L0.698,-0.667L0.092,-0.647L0.103,-0.439C0.105,-0.391 0.108,-0.322 0.118,-0.271L0.123,-0.236L0.527,-0.289L0.513,-0.384L0.509,-0.475L0.215,-0.454L0.209,-0.542L0.592,-0.569L0.6,-0.392L0.627,-0.213L0.049,-0.138L0.032,-0.256C0.023,-0.298 0.018,-0.354 0.015,-0.435L0,-0.732L0.782,-0.757L0.798,-0.412L0.851,-0.067L0.167,0.05L0.178,0.119C0.182,0.16 0.195,0.211 0.209,0.264C0.217,0.292 0.225,0.321 0.231,0.349L0.308,0.648L0.886,0.464C0.884,0.456 0.882,0.447 0.879,0.438L0.798,0.122L0.4,0.206L0.45,0.4L0.728,0.324L0.751,0.408L0.387,0.508L0.292,0.139L0.862,0.019L0.965,0.418C0.973,0.452 0.981,0.474 0.982,0.476L1,0.52L0.253,0.757L0.146,0.37Z" style="fill:url(#_Linear12);fill-rule:nonzero;"/>
            </g>
            <g transform="matrix(43.0791,0,0,-43.0791,294.826,135.208)">
                <path d="M0.611,0.326C0.575,0.313 0.542,0.297 0.512,0.282C0.498,0.275 0.484,0.268 0.47,0.262L0.383,0.22L0.576,-0.168L0.548,-0.181C0.52,-0.193 0.488,-0.213 0.454,-0.234L0.289,-0.334L0.076,-0.021L0.296,0.113L0.418,-0.11L0.318,-0.171L0.22,-0.015L0.173,-0.044L0.3,-0.246L0.491,-0.13L0.317,0.19L0.065,0.037L0,-0.007L0.259,-0.387L0.276,-0.412L0.3,-0.392C0.3,-0.392 0.304,-0.389 0.309,-0.386L0.483,-0.281C0.514,-0.261 0.545,-0.242 0.571,-0.232L0.65,-0.194L0.457,0.195L0.494,0.212C0.507,0.218 0.521,0.225 0.537,0.233C0.565,0.247 0.597,0.263 0.63,0.275L0.811,0.341L0.931,-0.018L0.828,-0.056C0.816,-0.06 0.805,-0.064 0.794,-0.068C0.773,-0.075 0.754,-0.082 0.738,-0.09L0.725,-0.096L0.621,0.136L0.629,0.14C0.642,0.146 0.659,0.154 0.677,0.16L0.737,0.182L0.801,0.013L0.852,0.032L0.769,0.252L0.659,0.212C0.639,0.205 0.62,0.196 0.605,0.189L0.549,0.162L0.698,-0.17L0.763,-0.139C0.776,-0.132 0.793,-0.126 0.812,-0.12C0.824,-0.116 0.836,-0.111 0.847,-0.107L1,-0.051L0.845,0.412L0.611,0.326Z" style="fill:url(#_Linear13);fill-rule:nonzero;"/>
            </g>
            <g transform="matrix(41.5719,0,0,-41.5719,263.436,157.877)">
                <path d="M0.619,0.436C0.608,0.428 0.596,0.419 0.584,0.41C0.555,0.389 0.523,0.365 0.494,0.337L0.303,0.163L0.616,-0.159C0.609,-0.166 0.6,-0.174 0.592,-0.184L0.5,-0.286C0.488,-0.299 0.476,-0.312 0.464,-0.325C0.443,-0.348 0.423,-0.369 0.408,-0.389L0.388,-0.416L0.079,-0.175L0.093,-0.155C0.11,-0.131 0.138,-0.1 0.163,-0.073L0.254,0.027L0.445,-0.155L0.363,-0.244L0.217,-0.121L0.18,-0.164L0.368,-0.323L0.524,-0.152L0.251,0.108L0.122,-0.034C0.095,-0.063 0.066,-0.095 0.047,-0.122L0,-0.185L0.399,-0.496L0.454,-0.423C0.467,-0.405 0.486,-0.385 0.506,-0.363C0.518,-0.35 0.53,-0.337 0.542,-0.323L0.635,-0.222C0.645,-0.209 0.655,-0.199 0.663,-0.193L0.698,-0.161L0.385,0.16L0.533,0.296C0.559,0.322 0.59,0.344 0.617,0.364C0.631,0.374 0.643,0.383 0.653,0.391L0.688,0.417L0.921,0.101L0.83,0.033C0.811,0.019 0.793,0.002 0.778,-0.012C0.77,-0.02 0.762,-0.026 0.755,-0.033L0.743,-0.043L0.567,0.152L0.616,0.197C0.633,0.213 0.65,0.228 0.664,0.238L0.782,0.091L0.826,0.127L0.675,0.315L0.653,0.301C0.651,0.299 0.612,0.272 0.577,0.239L0.487,0.156L0.739,-0.124L0.793,-0.075C0.8,-0.069 0.808,-0.062 0.817,-0.054C0.831,-0.04 0.847,-0.025 0.864,-0.012L1,0.089L0.699,0.496L0.619,0.436Z" style="fill:url(#_Linear14);fill-rule:nonzero;"/>
            </g>
            <g transform="matrix(40.688,0,0,-40.688,376.981,124.088)">
                <path d="M0,-0.188L0.228,-0.199L0.457,-0.233L0.533,0.219L0.578,0.212C0.608,0.209 0.646,0.2 0.686,0.189C0.701,0.185 0.716,0.181 0.731,0.178L0.928,0.127L0.808,-0.256L0.581,-0.198L0.637,0.066L0.765,0.033L0.715,-0.151L0.771,-0.166L0.836,0.075L0.592,0.137L0.513,-0.24L0.776,-0.308L0.846,-0.329L1,0.161L0.977,0.172C0.976,0.173 0.967,0.177 0.953,0.18L0.745,0.234C0.73,0.238 0.715,0.241 0.7,0.245C0.658,0.256 0.619,0.267 0.586,0.27L0.485,0.285L0.409,-0.167L0.234,-0.141L0.06,-0.133L0.072,0.268L0.228,0.26C0.262,0.258 0.295,0.257 0.32,0.252L0.344,0.248L0.31,-0.019C0.293,-0.016 0.27,-0.013 0.247,-0.01L0.186,-0.007L0.2,0.187L0.142,0.191L0.124,-0.062L0.242,-0.068C0.286,-0.073 0.329,-0.081 0.33,-0.081L0.359,-0.086L0.409,0.297L0.33,0.309C0.302,0.315 0.267,0.316 0.231,0.318L0.016,0.329L0,-0.188Z" style="fill:url(#_Linear15);fill-rule:nonzero;"/>
            </g>
            <g transform="matrix(40.3575,0,0,-40.3575,334.532,123.588)">
                <path d="M0.642,0.305C0.624,0.303 0.606,0.301 0.59,0.298L0.465,0.279L0.531,-0.179L0.495,-0.184C0.482,-0.187 0.468,-0.189 0.453,-0.191C0.422,-0.195 0.388,-0.199 0.355,-0.209L0.185,-0.252L0.073,0.136C0.181,0.165 0.293,0.193 0.34,0.202L0.389,-0.066C0.373,-0.068 0.35,-0.072 0.327,-0.079L0.268,-0.094L0.221,0.096L0.164,0.083L0.225,-0.166L0.343,-0.135C0.364,-0.129 0.385,-0.126 0.4,-0.124L0.458,-0.115L0.393,0.24L0.39,0.253L0.379,0.259C0.366,0.267 0.357,0.273 0.029,0.185L0,0.177L0.144,-0.323L0.37,-0.265C0.4,-0.257 0.432,-0.252 0.46,-0.249C0.477,-0.246 0.492,-0.244 0.505,-0.242L0.597,-0.228L0.531,0.23L0.599,0.24C0.614,0.243 0.631,0.245 0.647,0.247L0.938,0.262L0.941,-0.142L0.706,-0.155L0.678,0.116L0.811,0.123L0.819,-0.07L0.878,-0.067L0.866,0.184L0.675,0.174C0.654,0.174 0.641,0.172 0.641,0.172L0.613,0.168L0.653,-0.216L1,-0.198L0.997,0.323L0.642,0.305Z" style="fill:url(#_Linear16);fill-rule:nonzero;"/>
            </g>
            <g transform="matrix(41.2959,0,0,-41.2959,446.292,160.039)">
                <path d="M0,0.1L0.074,0.045C0.092,0.033 0.113,0.014 0.134,-0.006C0.147,-0.019 0.161,-0.031 0.174,-0.043L0.276,-0.135C0.289,-0.147 0.299,-0.156 0.307,-0.165L0.338,-0.199L0.661,0.117L0.797,-0.033C0.826,-0.061 0.85,-0.094 0.871,-0.123C0.879,-0.134 0.887,-0.144 0.894,-0.153L0.92,-0.188L0.602,-0.423L0.533,-0.33C0.505,-0.297 0.475,-0.265 0.457,-0.245L0.654,-0.067C0.688,-0.104 0.721,-0.142 0.74,-0.164L0.592,-0.283L0.628,-0.328L0.798,-0.191L0.807,-0.183L0.808,-0.171C0.809,-0.156 0.809,-0.152 0.677,-0.007L0.657,0.013L0.375,-0.241L0.395,-0.263C0.396,-0.263 0.444,-0.314 0.489,-0.366L0.591,-0.503L1,-0.2L0.939,-0.119C0.932,-0.11 0.925,-0.1 0.917,-0.089C0.895,-0.059 0.869,-0.024 0.839,0.007L0.664,0.199L0.341,-0.117C0.333,-0.11 0.325,-0.102 0.315,-0.093L0.212,0C0.199,0.011 0.186,0.024 0.173,0.035C0.15,0.057 0.128,0.078 0.108,0.092L0.081,0.112L0.323,0.424L0.374,0.385L0.526,0.248L0.344,0.055L0.254,0.138L0.378,0.285L0.334,0.322L0.175,0.132L0.347,-0.025L0.608,0.251L0.431,0.412L0.312,0.503L0,0.1Z" style="fill:url(#_Linear17);fill-rule:nonzero;"/>
            </g>
            <g transform="matrix(43.095,0,0,-43.095,413.788,136.619)">
                <path d="M0,-0.041L0.081,-0.071C0.091,-0.075 0.102,-0.078 0.113,-0.082C0.141,-0.092 0.172,-0.103 0.201,-0.119L0.397,-0.213L0.599,0.17C0.609,0.165 0.62,0.159 0.634,0.15L0.764,0.072C0.78,0.061 0.797,0.051 0.813,0.041C0.842,0.024 0.87,0.007 0.89,-0.008L0.924,-0.033L0.703,-0.341L0.693,-0.333C0.67,-0.314 0.637,-0.294 0.611,-0.279L0.518,-0.222L0.645,-0.002L0.752,-0.067L0.653,-0.217L0.698,-0.247L0.829,-0.049L0.626,0.074L0.443,-0.241L0.583,-0.326C0.608,-0.34 0.638,-0.359 0.659,-0.376L0.715,-0.418L1,-0.021L0.923,0.036C0.901,0.053 0.872,0.07 0.841,0.088C0.825,0.098 0.809,0.108 0.792,0.118L0.663,0.197C0.645,0.208 0.629,0.217 0.616,0.222L0.575,0.242L0.373,-0.141L0.226,-0.07C0.194,-0.053 0.161,-0.041 0.131,-0.031C0.121,-0.027 0.11,-0.023 0.101,-0.019L0.07,-0.008L0.199,0.348L0.319,0.303C0.365,0.283 0.41,0.261 0.437,0.249L0.327,0.019C0.275,0.045 0.242,0.06 0.221,0.069L0.29,0.238L0.239,0.259L0.16,0.063L0.188,0.052L0.18,0.026C0.192,0.023 0.265,-0.011 0.328,-0.042L0.353,-0.054L0.509,0.274L0.485,0.286C0.485,0.286 0.414,0.321 0.34,0.354L0.166,0.418L0,-0.041Z" style="fill:url(#_Linear18);fill-rule:nonzero;"/>
            </g>
            <g transform="matrix(26.1405,0,0,-26.1405,488.305,230.45)">
                <path d="M0,0.548L0.09,0.199C0.104,0.153 0.11,0.104 0.116,0.061C0.119,0.035 0.123,0.011 0.126,-0.008L0.148,-0.15L0.855,-0.047L0.882,-0.226L0.905,-0.676L0.281,-0.682L0.263,-0.318L0.68,-0.274L0.69,-0.479L0.393,-0.493L0.397,-0.584L0.785,-0.565L0.77,-0.27C0.769,-0.236 0.764,-0.215 0.764,-0.215L0.755,-0.175L0.161,-0.238L0.195,-0.773L1,-0.766L0.972,-0.217L0.931,0.055L0.224,-0.048L0.215,0.007C0.211,0.027 0.209,0.049 0.206,0.072C0.199,0.119 0.192,0.172 0.177,0.223L0.109,0.486L0.709,0.66L0.778,0.388C0.788,0.349 0.798,0.312 0.804,0.284L0.81,0.247L0.398,0.17C0.395,0.196 0.388,0.228 0.377,0.267L0.354,0.358L0.648,0.431L0.626,0.519L0.243,0.424L0.29,0.243C0.3,0.207 0.307,0.177 0.309,0.154L0.323,0.064L0.912,0.175L0.893,0.3C0.886,0.332 0.876,0.37 0.866,0.411L0.773,0.773L0,0.548Z" style="fill:url(#_Linear19);fill-rule:nonzero;"/>
            </g>
            <g transform="matrix(35.4407,0,0,-35.4407,472.211,192.576)">
                <path d="M0.03,0.293L0,0.273L0.022,0.245C0.023,0.244 0.026,0.24 0.031,0.232L0.141,0.05C0.171,0.003 0.201,-0.046 0.218,-0.086L0.263,-0.182L0.736,0.051L0.757,0.007C0.765,-0.009 0.773,-0.027 0.783,-0.046C0.8,-0.08 0.819,-0.119 0.833,-0.159L0.914,-0.38L0.477,-0.525L0.431,-0.399C0.426,-0.385 0.421,-0.371 0.416,-0.358C0.407,-0.333 0.399,-0.309 0.39,-0.29L0.382,-0.274L0.664,-0.148L0.666,-0.151C0.676,-0.171 0.686,-0.194 0.693,-0.217L0.72,-0.289L0.514,-0.367L0.538,-0.429L0.805,-0.328L0.756,-0.195C0.745,-0.161 0.732,-0.134 0.725,-0.121L0.696,-0.061L0.292,-0.241L0.329,-0.318C0.337,-0.335 0.345,-0.357 0.353,-0.38C0.358,-0.394 0.363,-0.408 0.368,-0.422L0.437,-0.608L1,-0.421L0.896,-0.137C0.881,-0.093 0.86,-0.052 0.842,-0.016C0.833,0.002 0.825,0.018 0.818,0.035L0.767,0.141L0.294,-0.093L0.278,-0.059C0.26,-0.016 0.229,0.035 0.198,0.085L0.094,0.256L0.475,0.515C0.479,0.509 0.483,0.502 0.488,0.494L0.637,0.247L0.366,0.099L0.292,0.221L0.482,0.34L0.447,0.396L0.201,0.243L0.342,0.011L0.731,0.222L0.545,0.528C0.526,0.56 0.512,0.58 0.512,0.58L0.493,0.608L0.03,0.293Z" style="fill:url(#_Linear20);fill-rule:nonzero;"/>
            </g>
        </g>
    </g>
    <defs>
        <linearGradient id="_Linear1" x1="0" y1="0" x2="1" y2="0" gradientUnits="userSpaceOnUse" gradientTransform="matrix(1,0,0,-1,0,1.47805e-05)"><stop offset="0" style="stop-color:rgb(249,226,118);stop-opacity:1"/><stop offset="1" style="stop-color:rgb(246,184,31);stop-opacity:1"/></linearGradient>
        <linearGradient id="_Linear2" x1="0" y1="0" x2="1" y2="0" gradientUnits="userSpaceOnUse" gradientTransform="matrix(1,0,0,-1,0,3.89024e-05)"><stop offset="0" style="stop-color:rgb(249,226,118);stop-opacity:1"/><stop offset="1" style="stop-color:rgb(246,184,31);stop-opacity:1"/></linearGradient>
        <linearGradient id="_Linear3" x1="0" y1="0" x2="1" y2="0" gradientUnits="userSpaceOnUse" gradientTransform="matrix(1,0,0,-1,0,-9.42337e-07)"><stop offset="0" style="stop-color:rgb(249,226,118);stop-opacity:1"/><stop offset="1" style="stop-color:rgb(246,184,31);stop-opacity:1"/></linearGradient>
        <linearGradient id="_Linear4" x1="0" y1="0" x2="1" y2="0" gradientUnits="userSpaceOnUse" gradientTransform="matrix(1,0,0,-1,0,1.51938e-05)"><stop offset="0" style="stop-color:rgb(249,226,118);stop-opacity:1"/><stop offset="1" style="stop-color:rgb(246,184,31);stop-opacity:1"/></linearGradient>
        <linearGradient id="_Linear5" x1="0" y1="0" x2="1" y2="0" gradientUnits="userSpaceOnUse" gradientTransform="matrix(1,0,0,-1,0,-3.86414e-06)"><stop offset="0" style="stop-color:rgb(249,226,118);stop-opacity:1"/><stop offset="1" style="stop-color:rgb(246,184,31);stop-opacity:1"/></linearGradient>
        <linearGradient id="_Linear6" x1="0" y1="0" x2="1" y2="0" gradientUnits="userSpaceOnUse" gradientTransform="matrix(1,0,0,-1,0,-1.26351e-06)"><stop offset="0" style="stop-color:rgb(249,226,118);stop-opacity:1"/><stop offset="1" style="stop-color:rgb(246,184,31);stop-opacity:1"/></linearGradient>
        <linearGradient id="_Linear7" x1="0" y1="0" x2="1" y2="0" gradientUnits="userSpaceOnUse" gradientTransform="matrix(1,0,0,-1,0,-1.97599e-06)"><stop offset="0" style="stop-color:rgb(249,226,118);stop-opacity:1"/><stop offset="1" style="stop-color:rgb(246,184,31);stop-opacity:1"/></linearGradient>
        <linearGradient id="_Linear8" x1="0" y1="0" x2="1" y2="0" gradientUnits="userSpaceOnUse" gradientTransform="matrix(1,0,0,-1,0,-1.01914e-05)"><stop offset="0" style="stop-color:rgb(249,226,118);stop-opacity:1"/><stop offset="1" style="stop-color:rgb(246,184,31);stop-opacity:1"/></linearGradient>
        <linearGradient id="_Linear9" x1="0" y1="0" x2="1" y2="0" gradientUnits="userSpaceOnUse" gradientTransform="matrix(1,0,0,-1,0,3.10202e-05)"><stop offset="0" style="stop-color:rgb(249,226,118);stop-opacity:1"/><stop offset="1" style="stop-color:rgb(246,184,31);stop-opacity:1"/></linearGradient>
        <linearGradient id="_Linear10" x1="0" y1="0" x2="1" y2="0" gradientUnits="userSpaceOnUse" gradientTransform="matrix(1,0,0,-1,0,2.23549e-05)"><stop offset="0" style="stop-color:rgb(249,226,118);stop-opacity:1"/><stop offset="1" style="stop-color:rgb(246,184,31);stop-opacity:1"/></linearGradient>
        <linearGradient id="_Linear11" x1="0" y1="0" x2="1" y2="0" gradientUnits="userSpaceOnUse" gradientTransform="matrix(1,0,0,-1,0,-6.29659e-06)"><stop offset="0" style="stop-color:rgb(249,226,118);stop-opacity:1"/><stop offset="1" style="stop-color:rgb(246,184,31);stop-opacity:1"/></linearGradient>
        <linearGradient id="_Linear12" x1="0" y1="0" x2="1" y2="0" gradientUnits="userSpaceOnUse" gradientTransform="matrix(1,0,0,-1,0,-2.10132e-05)"><stop offset="0" style="stop-color:rgb(249,226,118);stop-opacity:1"/><stop offset="1" style="stop-color:rgb(246,184,31);stop-opacity:1"/></linearGradient>
        <linearGradient id="_Linear13" x1="0" y1="0" x2="1" y2="0" gradientUnits="userSpaceOnUse" gradientTransform="matrix(1,0,0,-1,0,9.55452e-06)"><stop offset="0" style="stop-color:rgb(249,226,118);stop-opacity:1"/><stop offset="1" style="stop-color:rgb(246,184,31);stop-opacity:1"/></linearGradient>
        <linearGradient id="_Linear14" x1="0" y1="0" x2="1" y2="0" gradientUnits="userSpaceOnUse" gradientTransform="matrix(1,0,0,-1,0,2.46176e-05)"><stop offset="0" style="stop-color:rgb(249,226,118);stop-opacity:1"/><stop offset="1" style="stop-color:rgb(246,184,31);stop-opacity:1"/></linearGradient>
        <linearGradient id="_Linear15" x1="0" y1="0" x2="1" y2="0" gradientUnits="userSpaceOnUse" gradientTransform="matrix(1,0,0,-1,0,-3.00482e-05)"><stop offset="0" style="stop-color:rgb(249,226,118);stop-opacity:1"/><stop offset="1" style="stop-color:rgb(246,184,31);stop-opacity:1"/></linearGradient>
        <linearGradient id="_Linear16" x1="0" y1="0" x2="1" y2="0" gradientUnits="userSpaceOnUse" gradientTransform="matrix(1,0,0,-1,0,8.82116e-07)"><stop offset="0" style="stop-color:rgb(249,226,118);stop-opacity:1"/><stop offset="1" style="stop-color:rgb(246,184,31);stop-opacity:1"/></linearGradient>
        <linearGradient id="_Linear17" x1="0" y1="0" x2="1" y2="0" gradientUnits="userSpaceOnUse" gradientTransform="matrix(1,0,0,-1,0,4.36363e-06)"><stop offset="0" style="stop-color:rgb(249,226,118);stop-opacity:1"/><stop offset="1" style="stop-color:rgb(246,184,31);stop-opacity:1"/></linearGradient>
        <linearGradient id="_Linear18" x1="0" y1="0" x2="1" y2="0" gradientUnits="userSpaceOnUse" gradientTransform="matrix(1,0,0,-1,0,-1.44796e-05)"><stop offset="0" style="stop-color:rgb(249,226,118);stop-opacity:1"/><stop offset="1" style="stop-color:rgb(246,184,31);stop-opacity:1"/></linearGradient>
        <linearGradient id="_Linear19" x1="0" y1="0" x2="1" y2="0" gradientUnits="userSpaceOnUse" gradientTransform="matrix(1,0,0,-1,0,1.68474e-05)"><stop offset="0" style="stop-color:rgb(249,226,118);stop-opacity:1"/><stop offset="1" style="stop-color:rgb(246,184,31);stop-opacity:1"/></linearGradient>
        <linearGradient id="_Linear20" x1="0" y1="0" x2="1" y2="0" gradientUnits="userSpaceOnUse" gradientTransform="matrix(1,0,0,-1,0,-9.04046e-06)"><stop offset="0" style="stop-color:rgb(249,226,118);stop-opacity:1"/><stop offset="1" style="stop-color:rgb(246,184,31);stop-opacity:1"/></linearGradient>
    </defs>
</svg>
