<?xml version="1.0" encoding="UTF-8" standalone="no"?>
<!DOCTYPE svg PUBLIC "-//W3C//DTD SVG 1.1//EN" "http://www.w3.org/Graphics/SVG/1.1/DTD/svg11.dtd">
<svg width="100%" height="100%" viewBox="0 0 299 140" version="1.1" xmlns="http://www.w3.org/2000/svg" xmlns:xlink="http://www.w3.org/1999/xlink" xml:space="preserve" xmlns:serif="http://www.serif.com/" style="fill-rule:evenodd;clip-rule:evenodd;stroke-linejoin:round;stroke-miterlimit:2;">
    <g transform="matrix(1,0,0,1,-1316.21,-673.8)">
        <g transform="matrix(4.16667,0,0,4.16667,0,0)">
            <g transform="matrix(71.7451,0,0,-71.7451,315.89,177.935)">
                <path d="M0.243,0.226C0.182,0.222 0.139,0.201 0.115,0.165C0.087,0.122 0.092,0.069 0.098,0.041C0.07,0.041 0.045,0.032 0.026,0.015C0.007,-0.002 -0.002,-0.026 0,-0.049C0.006,-0.097 0.045,-0.117 0.067,-0.125C0.063,-0.152 0.076,-0.181 0.103,-0.199C0.127,-0.215 0.164,-0.223 0.2,-0.203C0.193,-0.196 0.186,-0.188 0.181,-0.18C0.157,-0.191 0.135,-0.186 0.119,-0.175C0.102,-0.164 0.089,-0.143 0.098,-0.121C0.099,-0.117 0.099,-0.112 0.097,-0.108C0.095,-0.105 0.091,-0.102 0.087,-0.101C0.086,-0.101 0.034,-0.091 0.029,-0.046C0.027,-0.032 0.033,-0.017 0.045,-0.006C0.062,0.009 0.087,0.015 0.114,0.01C0.119,0.009 0.124,0.011 0.128,0.015C0.131,0.019 0.132,0.024 0.13,0.029C0.13,0.03 0.106,0.1 0.139,0.149C0.158,0.177 0.193,0.194 0.244,0.197C0.249,0.197 0.276,0.195 0.304,0.183C0.34,0.168 0.36,0.144 0.364,0.112L0.364,0.112C0.366,0.118 0.371,0.123 0.378,0.123C0.386,0.124 0.393,0.117 0.393,0.11C0.393,0.109 0.393,0.106 0.392,0.102C0.399,0.107 0.412,0.117 0.429,0.124C0.46,0.135 0.489,0.131 0.515,0.11C0.56,0.075 0.536,0.014 0.535,0.012C0.532,0.005 0.535,-0.003 0.542,-0.007C0.548,-0.01 0.557,-0.008 0.561,-0.001C0.562,0.001 0.591,0.049 0.653,0.029C0.704,0.011 0.703,-0.037 0.701,-0.05L0.702,-0.051C0.705,-0.043 0.714,-0.04 0.721,-0.043C0.728,-0.047 0.732,-0.055 0.728,-0.062C0.728,-0.063 0.727,-0.065 0.725,-0.069C0.748,-0.062 0.84,-0.042 0.923,-0.118C0.857,-0.09 0.753,-0.071 0.644,-0.149C0.573,-0.2 0.507,-0.204 0.456,-0.193C0.448,-0.2 0.439,-0.207 0.428,-0.214C0.451,-0.221 0.477,-0.226 0.505,-0.226C0.552,-0.226 0.605,-0.212 0.661,-0.172C0.824,-0.055 0.97,-0.177 0.976,-0.182C0.982,-0.186 0.99,-0.186 0.995,-0.182C1,-0.177 1.002,-0.169 0.998,-0.163C0.907,-0.02 0.78,-0.028 0.731,-0.038C0.73,-0.006 0.715,0.038 0.662,0.056C0.624,0.068 0.593,0.061 0.571,0.048C0.571,0.076 0.563,0.109 0.533,0.133C0.48,0.175 0.423,0.158 0.388,0.135C0.368,0.203 0.288,0.224 0.244,0.226L0.244,0.226C0.243,0.226 0.243,0.226 0.243,0.226Z" style="fill:url(#_Linear1);fill-rule:nonzero;"/>
            </g>
            <g transform="matrix(23.8717,0,0,-23.8717,327.651,186.569)">
                <path d="M0.532,0.327C0.478,0.293 0.444,0.238 0.433,0.168C0.425,0.118 0.43,0.078 0.44,0.047C0.456,-0.002 0.485,-0.031 0.507,-0.047C0.562,-0.088 0.638,-0.095 0.697,-0.067C0.785,-0.023 0.792,0.078 0.782,0.131C0.778,0.155 0.756,0.17 0.732,0.166C0.709,0.161 0.693,0.139 0.697,0.115C0.698,0.112 0.711,0.036 0.659,0.011C0.629,-0.004 0.587,0.001 0.558,0.023C0.523,0.049 0.509,0.094 0.518,0.155C0.525,0.201 0.545,0.233 0.578,0.253C0.63,0.286 0.711,0.283 0.767,0.266C0.825,0.248 0.954,0.186 0.901,-0.008C0.853,-0.178 0.708,-0.269 0.467,-0.278C0.243,-0.287 0.095,-0.158 0.087,-0.033C0.084,0.01 0.094,0.044 0.116,0.067C0.145,0.095 0.186,0.101 0.206,0.1C0.219,0.1 0.24,0.084 0.252,0.06C0.257,0.05 0.268,0.024 0.255,0.004C0.241,-0.019 0.22,-0.022 0.209,-0.021C0.193,-0.021 0.182,-0.014 0.18,-0.009C0.168,0.012 0.142,0.02 0.121,0.008C0.1,-0.003 0.092,-0.029 0.104,-0.05C0.122,-0.084 0.161,-0.106 0.206,-0.108C0.255,-0.109 0.301,-0.085 0.328,-0.043C0.34,-0.023 0.347,-0.001 0.347,0.023C0.348,0.048 0.342,0.074 0.329,0.099C0.303,0.15 0.257,0.184 0.211,0.187C0.166,0.189 0.101,0.174 0.055,0.127C0.027,0.099 -0.005,0.047 0.001,-0.039C0.004,-0.088 0.021,-0.136 0.051,-0.18C0.067,-0.204 0.086,-0.226 0.109,-0.247C0.186,-0.317 0.301,-0.365 0.444,-0.365C0.453,-0.365 0.462,-0.365 0.47,-0.365C0.613,-0.359 0.718,-0.327 0.794,-0.281C0.827,-0.262 0.854,-0.24 0.877,-0.217C0.935,-0.159 0.967,-0.092 0.984,-0.031C1.044,0.187 0.925,0.308 0.793,0.349C0.762,0.358 0.722,0.365 0.682,0.365C0.63,0.365 0.577,0.355 0.532,0.327Z" style="fill:url(#_Linear2);fill-rule:nonzero;"/>
            </g>
            <g transform="matrix(13.0687,0,0,-13.0687,331.01,171.433)">
                <path d="M0.111,0.26C0.032,0.223 -0.016,0.1 0.005,-0.024C0.016,-0.096 0.083,-0.327 0.449,-0.327C0.453,-0.327 0.457,-0.327 0.461,-0.327C0.648,-0.325 0.791,-0.273 0.886,-0.174C0.968,-0.088 0.991,0.01 0.998,0.064C1,0.087 1,0.102 1,0.104C0.999,0.147 0.962,0.181 0.919,0.18C0.881,0.18 0.85,0.151 0.843,0.115C0.843,0.11 0.842,0.105 0.842,0.1C0.842,0.073 0.834,-0.164 0.459,-0.169C0.306,-0.172 0.206,-0.125 0.171,-0.036C0.144,0.032 0.165,0.101 0.18,0.118C0.185,0.12 0.19,0.123 0.195,0.126C0.209,0.136 0.336,0.221 0.423,0.122C0.452,0.089 0.502,0.086 0.534,0.115C0.549,0.128 0.557,0.144 0.56,0.162C0.563,0.184 0.558,0.208 0.541,0.227C0.475,0.302 0.397,0.327 0.324,0.327C0.239,0.327 0.16,0.293 0.111,0.26Z" style="fill:url(#_Linear3);fill-rule:nonzero;"/>
            </g>
            <g transform="matrix(11.6671,0,0,-11.6671,356.567,181.755)">
                <path d="M0.149,0.296C0.052,0.239 -0.005,0.14 0,0.038C0.005,-0.049 0.056,-0.173 0.272,-0.27C0.371,-0.315 0.465,-0.337 0.553,-0.337C0.614,-0.337 0.671,-0.327 0.726,-0.306C0.861,-0.254 0.938,-0.15 0.972,-0.094C0.985,-0.073 0.992,-0.058 0.993,-0.056C1.012,-0.011 0.992,0.041 0.947,0.061C0.903,0.08 0.851,0.06 0.831,0.016C0.831,0.016 0.831,0.016 0.83,0.015C0.83,0.014 0.779,-0.095 0.662,-0.14C0.574,-0.175 0.467,-0.164 0.344,-0.109C0.241,-0.062 0.18,-0.005 0.177,0.048C0.175,0.09 0.209,0.126 0.239,0.144C0.269,0.161 0.301,0.165 0.319,0.154C0.36,0.128 0.415,0.141 0.441,0.182C0.443,0.185 0.444,0.189 0.446,0.192C0.464,0.232 0.451,0.28 0.413,0.304C0.377,0.326 0.336,0.337 0.293,0.337C0.245,0.337 0.195,0.324 0.149,0.296Z" style="fill:url(#_Linear4);fill-rule:nonzero;"/>
            </g>
        </g>
    </g>
    <defs>
        <linearGradient id="_Linear1" x1="0" y1="0" x2="1" y2="0" gradientUnits="userSpaceOnUse" gradientTransform="matrix(1,0,0,-1,0,7.72457e-06)"><stop offset="0" style="stop-color:rgb(249,226,118);stop-opacity:1"/><stop offset="1" style="stop-color:rgb(246,184,31);stop-opacity:1"/></linearGradient>
        <linearGradient id="_Linear2" x1="0" y1="0" x2="1" y2="0" gradientUnits="userSpaceOnUse" gradientTransform="matrix(1,0,0,-1,0,-1.69322e-05)"><stop offset="0" style="stop-color:rgb(249,226,118);stop-opacity:1"/><stop offset="1" style="stop-color:rgb(246,184,31);stop-opacity:1"/></linearGradient>
        <linearGradient id="_Linear3" x1="0" y1="0" x2="1" y2="0" gradientUnits="userSpaceOnUse" gradientTransform="matrix(1,0,0,-1,0,5.67924e-05)"><stop offset="0" style="stop-color:rgb(249,226,118);stop-opacity:1"/><stop offset="1" style="stop-color:rgb(246,184,31);stop-opacity:1"/></linearGradient>
        <linearGradient id="_Linear4" x1="0" y1="0" x2="1" y2="0" gradientUnits="userSpaceOnUse" gradientTransform="matrix(1,0,0,-1,0,5.67063e-05)"><stop offset="0" style="stop-color:rgb(249,226,118);stop-opacity:1"/><stop offset="1" style="stop-color:rgb(246,184,31);stop-opacity:1"/></linearGradient>
    </defs>
</svg>
