<?xml version="1.0" encoding="UTF-8" standalone="no"?>
<!DOCTYPE svg PUBLIC "-//W3C//DTD SVG 1.1//EN" "http://www.w3.org/Graphics/SVG/1.1/DTD/svg11.dtd">
<svg width="100%" height="100%" viewBox="0 0 189 189" version="1.1" xmlns="http://www.w3.org/2000/svg" xmlns:xlink="http://www.w3.org/1999/xlink" xml:space="preserve" xmlns:serif="http://www.serif.com/" style="fill-rule:evenodd;clip-rule:evenodd;stroke-linejoin:round;stroke-miterlimit:2;">
    <g transform="matrix(1,0,0,1,-165.321,-558.019)">
        <g transform="matrix(4.16667,0,0,4.16667,0,0)">
            <g transform="matrix(1,0,0,1,-61.6264,-18.4244)">
                <g transform="matrix(5.09891,-13.4895,-13.4895,-5.09891,107.205,185.525)">
                    <path d="M0.757,0.201C0.567,0.402 0.148,0.566 0.044,0.44C-0.059,0.314 0.023,-0.088 0.245,-0.29C0.417,-0.447 0.905,-0.597 0.975,-0.529C1.024,-0.481 0.998,-0.283 0.926,-0.095C0.883,0.018 0.825,0.128 0.757,0.201Z" style="fill:url(#_Linear1);fill-rule:nonzero;"/>
                </g>
                <g transform="matrix(1.28863,-3.40916,-3.40916,-1.28863,106.036,172.502)">
                    <path d="M0.269,0.595C-0.305,0.251 0.129,-0.602 0.733,-0.227C0.993,-0.066 1.042,0.17 0.97,0.36C0.876,0.609 0.574,0.778 0.269,0.595Z" style="fill:url(#_Linear2);fill-rule:nonzero;"/>
                </g>
                <g transform="matrix(2.13163,-5.63936,-5.63936,-2.13163,122.953,176.825)">
                    <path d="M0.269,0.595C-0.305,0.251 0.129,-0.602 0.733,-0.227C0.993,-0.066 1.042,0.17 0.97,0.36C0.876,0.609 0.574,0.778 0.269,0.595Z" style="fill:url(#_Linear3);fill-rule:nonzero;"/>
                </g>
                <g transform="matrix(3.71,-9.81503,-9.81503,-3.71,135.668,180.724)">
                    <path d="M0.296,0.947C0.148,0.915 -0.055,0.295 0.014,-0.062C0.086,-0.435 0.454,-0.933 0.666,-0.862C0.879,-0.791 1.079,-0.263 0.969,0.134C0.964,0.152 0.958,0.17 0.951,0.189C0.833,0.502 0.419,0.972 0.296,0.947Z" style="fill:url(#_Linear4);fill-rule:nonzero;"/>
                </g>
                <g transform="matrix(3.95977,-10.4758,-10.4758,-3.95977,111.211,168.413)">
                    <path d="M0.845,0.78C0.645,0.845 0.2,0.558 0.061,0.198C-0.047,-0.082 0,-0.737 0.113,-0.789C0.243,-0.848 0.742,-0.493 0.889,-0.185C1.005,0.056 1.034,0.444 0.957,0.649C0.931,0.717 0.894,0.764 0.845,0.78Z" style="fill:url(#_Linear5);fill-rule:nonzero;"/>
                </g>
                <g transform="matrix(1.28862,-3.40912,-3.40912,-1.28862,113.648,190.42)">
                    <path d="M0.268,0.595C-0.305,0.251 0.129,-0.602 0.733,-0.227C0.993,-0.066 1.042,0.17 0.97,0.36C0.876,0.609 0.574,0.778 0.268,0.595Z" style="fill:url(#_Linear6);fill-rule:nonzero;"/>
                </g>
                <g transform="matrix(6.64731,-17.5859,-17.5859,-6.64731,119.945,196.85)">
                    <path d="M0.425,0.28C0.22,0.224 -0.042,-0.001 0.006,-0.116C0.054,-0.231 0.357,-0.32 0.573,-0.243C0.742,-0.182 1.019,0.094 0.999,0.165C0.999,0.166 0.998,0.167 0.998,0.168C0.967,0.248 0.619,0.332 0.425,0.28Z" style="fill:url(#_Linear7);fill-rule:nonzero;"/>
                </g>
                <g transform="matrix(1.28861,-3.40909,-3.40909,-1.28861,132.353,186.083)">
                    <path d="M0.269,0.595C-0.305,0.251 0.129,-0.603 0.733,-0.227C0.993,-0.066 1.042,0.17 0.97,0.36C0.876,0.609 0.574,0.778 0.269,0.595Z" style="fill:url(#_Linear8);fill-rule:nonzero;"/>
                </g>
                <g transform="matrix(1.28862,-3.40913,-3.40913,-1.28862,137.42,168.016)">
                    <path d="M0.269,0.595C-0.305,0.251 0.129,-0.602 0.734,-0.227C0.993,-0.066 1.042,0.17 0.97,0.359C0.876,0.609 0.574,0.778 0.269,0.595Z" style="fill:url(#_Linear9);fill-rule:nonzero;"/>
                </g>
                <g transform="matrix(6.80531,-18.0039,-18.0039,-6.80531,126.222,170.144)">
                    <path d="M0.539,0.279C0.364,0.289 0.009,0.148 0,0.076C-0.01,-0.007 0.275,-0.22 0.471,-0.247C0.677,-0.276 0.999,-0.174 1,-0.052C1,-0.038 0.997,-0.023 0.991,-0.007C0.946,0.113 0.737,0.267 0.539,0.279Z" style="fill:url(#_Linear10);fill-rule:nonzero;"/>
                </g>
                <g transform="matrix(1.28862,-3.40912,-3.40912,-1.28862,120.378,159.282)">
                    <path d="M0.269,0.595C-0.305,0.251 0.129,-0.602 0.733,-0.227C0.993,-0.066 1.042,0.17 0.97,0.36C0.876,0.609 0.574,0.778 0.269,0.595Z" style="fill:url(#_Linear11);fill-rule:nonzero;"/>
                </g>
            </g>
        </g>
    </g>
    <defs>
        <linearGradient id="_Linear1" x1="0" y1="0" x2="1" y2="0" gradientUnits="userSpaceOnUse" gradientTransform="matrix(1,0,0,-1,0,-0.0310279)"><stop offset="0" style="stop-color:rgb(249,226,118);stop-opacity:1"/><stop offset="1" style="stop-color:rgb(246,184,31);stop-opacity:1"/></linearGradient>
        <linearGradient id="_Linear2" x1="0" y1="0" x2="1" y2="0" gradientUnits="userSpaceOnUse" gradientTransform="matrix(1,0,0,-1,0,0.175786)"><stop offset="0" style="stop-color:rgb(249,226,118);stop-opacity:1"/><stop offset="1" style="stop-color:rgb(246,184,31);stop-opacity:1"/></linearGradient>
        <linearGradient id="_Linear3" x1="0" y1="0" x2="1" y2="0" gradientUnits="userSpaceOnUse" gradientTransform="matrix(1,0,0,-1,0,0.175841)"><stop offset="0" style="stop-color:rgb(249,226,118);stop-opacity:1"/><stop offset="1" style="stop-color:rgb(246,184,31);stop-opacity:1"/></linearGradient>
        <linearGradient id="_Linear4" x1="0" y1="0" x2="1" y2="0" gradientUnits="userSpaceOnUse" gradientTransform="matrix(1,0,0,-1,0,0.0394065)"><stop offset="0" style="stop-color:rgb(249,226,118);stop-opacity:1"/><stop offset="1" style="stop-color:rgb(246,184,31);stop-opacity:1"/></linearGradient>
        <linearGradient id="_Linear5" x1="0" y1="0" x2="1" y2="0" gradientUnits="userSpaceOnUse" gradientTransform="matrix(1,0,0,-1,0,-0.00280112)"><stop offset="0" style="stop-color:rgb(249,226,118);stop-opacity:1"/><stop offset="1" style="stop-color:rgb(246,184,31);stop-opacity:1"/></linearGradient>
        <linearGradient id="_Linear6" x1="0" y1="0" x2="1" y2="0" gradientUnits="userSpaceOnUse" gradientTransform="matrix(1,-5.55112e-17,-5.55112e-17,-1,0,0.175731)"><stop offset="0" style="stop-color:rgb(249,226,118);stop-opacity:1"/><stop offset="1" style="stop-color:rgb(246,184,31);stop-opacity:1"/></linearGradient>
        <linearGradient id="_Linear7" x1="0" y1="0" x2="1" y2="0" gradientUnits="userSpaceOnUse" gradientTransform="matrix(1,-5.55112e-17,-5.55112e-17,-1,0,0.0120688)"><stop offset="0" style="stop-color:rgb(249,226,118);stop-opacity:1"/><stop offset="1" style="stop-color:rgb(246,184,31);stop-opacity:1"/></linearGradient>
        <linearGradient id="_Linear8" x1="0" y1="0" x2="1" y2="0" gradientUnits="userSpaceOnUse" gradientTransform="matrix(1,5.55112e-17,5.55112e-17,-1,0,0.175702)"><stop offset="0" style="stop-color:rgb(249,226,118);stop-opacity:1"/><stop offset="1" style="stop-color:rgb(246,184,31);stop-opacity:1"/></linearGradient>
        <linearGradient id="_Linear9" x1="0" y1="0" x2="1" y2="0" gradientUnits="userSpaceOnUse" gradientTransform="matrix(1,5.55112e-17,5.55112e-17,-1,0,0.175569)"><stop offset="0" style="stop-color:rgb(249,226,118);stop-opacity:1"/><stop offset="1" style="stop-color:rgb(246,184,31);stop-opacity:1"/></linearGradient>
        <linearGradient id="_Linear10" x1="0" y1="0" x2="1" y2="0" gradientUnits="userSpaceOnUse" gradientTransform="matrix(1,5.55112e-17,5.55112e-17,-1,0,0.0137471)"><stop offset="0" style="stop-color:rgb(249,226,118);stop-opacity:1"/><stop offset="1" style="stop-color:rgb(246,184,31);stop-opacity:1"/></linearGradient>
        <linearGradient id="_Linear11" x1="0" y1="0" x2="1" y2="0" gradientUnits="userSpaceOnUse" gradientTransform="matrix(1,0,0,-1,0,0.17581)"><stop offset="0" style="stop-color:rgb(249,226,118);stop-opacity:1"/><stop offset="1" style="stop-color:rgb(246,184,31);stop-opacity:1"/></linearGradient>
    </defs>
</svg>
